<svg id="Group_91" data-name="Group 91" xmlns="http://www.w3.org/2000/svg" width="871.44" height="695.587" viewBox="0 0 871.44 695.587">
  <g id="Group_40" data-name="Group 40" transform="translate(190.92 51.645)">
    <g id="Group_5" data-name="Group 5" transform="translate(26.449 238.987)">
      <path id="Path_1" data-name="Path 1" d="M139.073,268.6l43.322-27.26s-9.852-22.233-10.285-22.233-17.16-10.222-24.315-6.529-10.737,12.05-11.334,22.047S139.073,268.6,139.073,268.6Z" transform="translate(-132.319 -186.59)" fill="#ad9e9f"/>
      <g id="Group_2" data-name="Group 2" transform="translate(0 29.72)">
        <path id="Path_2" data-name="Path 2" d="M238.656,288.585c0-27.074-16.461-58.525-36.766-70.246-5.131-2.965-15.977-4.7-20.813-4.686-3.8.007-14.707,3.577-27.688,13.276-10.9,8.14-12.089,21.742-12.089,21.742l41.308,84.845s7.62,5.482,19.728.83c5.327-2.046,12.824-6.834,16.862-9.549,8.043-5.414,11.854-9.4,14.19-13.66a57.78,57.78,0,0,0,3.042-7.054A50.1,50.1,0,0,0,238.656,288.585Z" transform="translate(-125.354 -213.652)" fill="#2b1722"/>
        <ellipse id="Ellipse_4" data-name="Ellipse 4" cx="31.932" cy="56.443" rx="31.932" ry="56.443" transform="translate(0 28.687) rotate(-23.051)" fill="#442e3a"/>
        <path id="Path_3" data-name="Path 3" d="M143.635,249.948c0,21.319,12.962,46.084,28.951,55.316s28.951-.568,28.951-21.887-12.962-46.084-28.951-55.316S143.635,228.629,143.635,249.948Z" transform="translate(-122.041 -198.143)" fill="#2b1722"/>
        <path id="Path_4" data-name="Path 4" d="M146.952,248c0,16.1,9.791,34.81,21.868,41.784s21.868-.428,21.868-16.533-9.789-34.81-21.868-41.784S146.952,231.9,146.952,248Z" transform="translate(-117.336 -192.107)" fill="#e0d4d3"/>
        <g id="Group_1" data-name="Group 1" transform="translate(31.081 40.348)">
          <path id="Path_5" data-name="Path 5" d="M167.2,232.694c10.848,6.263,19.643,23.067,19.643,37.53s-8.795,21.113-19.643,14.848-19.641-23.065-19.641-37.528S156.351,226.431,167.2,232.694Zm4.258,4.851a17.076,17.076,0,0,0-4.157-3.24c-1.685-.924-3.482-2.293-7.276-2.007a3.455,3.455,0,0,0-2.058.977c-.614.653-.491,1.465.2,2.8a47.313,47.313,0,0,0,2.488,4.4c.445.663.716.363,1.637.447a9.41,9.41,0,0,1,2.643.469,17.975,17.975,0,0,1,4.365,2.621c.634.505.943.341,1.2-.017a12.737,12.737,0,0,0,1.584-3.579A3.176,3.176,0,0,0,171.457,237.545Zm-14.72,15.3c0,7.7,4.684,16.652,10.461,19.986s10.461-.2,10.461-7.907-4.684-16.652-10.461-19.989S156.737,245.141,156.737,252.845Zm27.248,6.05a36.289,36.289,0,0,0-4.1-10.674A27.721,27.721,0,0,0,176.451,243c-.941-.783-1.441-.484-1.753.23a15.594,15.594,0,0,0-1.195,4.009,2.476,2.476,0,0,0,.493,1.9,39.232,39.232,0,0,1,3.2,5.811,35.2,35.2,0,0,1,1.354,3.988c.433,1.422.389,1.978.921,2.4a22.645,22.645,0,0,0,3.335,2.089c.982.525,1.456.38,1.538-.866A14.182,14.182,0,0,0,183.986,258.9Zm-4.367,24.874c.525,0,1.976-1.289,2.8-2.575.887-1.4,2.075-2.539,2.587-7.833a13.738,13.738,0,0,0-.239-3.622c-.3-1.4-.834-1.981-1.8-2.28a13.35,13.35,0,0,0-3.221-.7c-.5-.01-.358.622-.578,1.768a15.482,15.482,0,0,1-.776,3.083,10.054,10.054,0,0,1-2.445,3.414c-.433.377-.387.941-.206,1.6a39.274,39.274,0,0,0,1.959,5.349C178.155,283.019,178.741,283.781,179.618,283.769Zm-18.09-5.661a14.681,14.681,0,0,0,2.375,2.856c4.116,3.639,5.809,3.751,7.458,4.239,1.521.452,3.509.5,3.908.179.663-.539.563-1.475.172-2.537a39.291,39.291,0,0,0-2.307-5.226c-.331-.609-.694-1.059-1.284-1.071a11.144,11.144,0,0,1-4.237-1.025,17.384,17.384,0,0,1-2.752-1.818c-.975-.718-1.315-1.279-1.681-.96a11.918,11.918,0,0,0-1.918,2.534C160.754,276.106,160.759,276.868,161.528,278.108Zm-11-17.747a36.239,36.239,0,0,0,4.764,10.4,14.428,14.428,0,0,0,2.38,2.841c.953.82,1.393.593,1.707-.467a21.945,21.945,0,0,0,.856-3.806c.07-.675-.358-1.035-1.076-2.341a36.061,36.061,0,0,1-1.9-3.76,39.193,39.193,0,0,1-1.91-6.338,2.513,2.513,0,0,0-1.016-1.69,15.97,15.97,0,0,0-3.722-1.993c-.73-.285-1.3-.148-1.4,1.064A27.622,27.622,0,0,0,150.528,260.361Zm.056-9.922a11.45,11.45,0,0,0,3.635,1.018c.426.027.745-.118.779-.953a20.028,20.028,0,0,1,.878-5.194,10.445,10.445,0,0,1,1.352-2.43c.527-.8.921-.82.723-1.6a48.908,48.908,0,0,0-1.63-4.824c-.534-1.407-1.052-2.026-1.922-1.952a3.468,3.468,0,0,0-2.034,1.03c-2.641,2.873-2.791,5.2-3.192,7.146a18.56,18.56,0,0,0-.293,5.424A3.033,3.033,0,0,0,150.583,250.439Z" transform="translate(-147.558 -230.337)" fill="#fff"/>
          <path id="Path_6" data-name="Path 6" d="M160.217,238.62c4.7,2.716,8.517,10,8.517,16.274s-3.813,9.158-8.517,6.44-8.519-10-8.519-16.274S155.511,235.9,160.217,238.62Z" transform="translate(-141.687 -220.042)" fill="#c6b7b8"/>
          <path id="Path_7" data-name="Path 7" d="M167.606,256.277a22.644,22.644,0,0,1-3.335-2.089c-.532-.426-.488-.982-.921-2.4A35.207,35.207,0,0,0,162,247.8a39.23,39.23,0,0,0-3.2-5.811,2.476,2.476,0,0,1-.493-1.9,15.594,15.594,0,0,1,1.195-4.009c.312-.713.813-1.013,1.753-.23a27.722,27.722,0,0,1,3.434,5.221,36.29,36.29,0,0,1,4.1,10.674,14.181,14.181,0,0,1,.355,3.671C169.061,256.657,168.587,256.8,167.606,256.277Z" transform="translate(-132.36 -223.182)" fill="#442e3a"/>
          <path id="Path_8" data-name="Path 8" d="M164.621,242.87c-.254.358-.563.522-1.2.017a17.979,17.979,0,0,0-4.365-2.621,9.41,9.41,0,0,0-2.643-.469c-.921-.085-1.192.215-1.637-.447a47.323,47.323,0,0,1-2.488-4.4c-.687-1.332-.81-2.145-.2-2.8a3.455,3.455,0,0,1,2.058-.977c3.794-.285,5.591,1.083,7.276,2.007a17.076,17.076,0,0,1,4.157,3.24,3.176,3.176,0,0,1,.619,2.873A12.737,12.737,0,0,1,164.621,242.87Z" transform="translate(-141.687 -229.21)" fill="#442e3a"/>
          <path id="Path_9" data-name="Path 9" d="M148.454,240.238c.4-1.949.551-4.273,3.192-7.146a3.468,3.468,0,0,1,2.034-1.03c.871-.075,1.388.544,1.922,1.952a48.909,48.909,0,0,1,1.63,4.824c.2.784-.2.808-.723,1.6a10.446,10.446,0,0,0-1.352,2.43,20.028,20.028,0,0,0-.878,5.194c-.034.834-.353.979-.779.953A11.45,11.45,0,0,1,149.866,248a3.033,3.033,0,0,1-1.7-2.338A18.561,18.561,0,0,1,148.454,240.238Z" transform="translate(-146.841 -227.899)" fill="#442e3a"/>
          <path id="Path_10" data-name="Path 10" d="M149.644,239.87a15.969,15.969,0,0,1,3.722,1.993,2.513,2.513,0,0,1,1.016,1.69,39.2,39.2,0,0,0,1.91,6.338,36.057,36.057,0,0,0,1.9,3.76c.718,1.306,1.146,1.666,1.076,2.341a21.942,21.942,0,0,1-.856,3.806c-.314,1.059-.754,1.286-1.707.467a14.43,14.43,0,0,1-2.38-2.841,36.238,36.238,0,0,1-4.764-10.4,27.619,27.619,0,0,1-1.323-6.087C148.345,239.722,148.914,239.584,149.644,239.87Z" transform="translate(-146.595 -216.997)" fill="#442e3a"/>
          <path id="Path_11" data-name="Path 11" d="M155.349,247.928c.365-.319.706.242,1.681.96a17.385,17.385,0,0,0,2.752,1.818,11.145,11.145,0,0,0,4.237,1.025c.59.012.953.462,1.284,1.071a39.3,39.3,0,0,1,2.307,5.226c.392,1.062.491,2-.172,2.537-.4.324-2.387.273-3.908-.179-1.649-.488-3.342-.6-7.458-4.239a14.68,14.68,0,0,1-2.375-2.856c-.769-1.241-.774-2-.266-2.829A11.917,11.917,0,0,1,155.349,247.928Z" transform="translate(-139.727 -205.52)" fill="#442e3a"/>
          <path id="Path_12" data-name="Path 12" d="M159.495,253.665a10.055,10.055,0,0,0,2.445-3.414,15.482,15.482,0,0,0,.776-3.083c.22-1.146.08-1.777.578-1.768a13.347,13.347,0,0,1,3.221.7c.962.3,1.5.875,1.8,2.28a13.739,13.739,0,0,1,.239,3.622c-.513,5.293-1.7,6.435-2.587,7.833-.82,1.286-2.271,2.57-2.8,2.575-.878.012-1.463-.75-1.92-1.789a39.278,39.278,0,0,1-1.959-5.349C159.108,254.606,159.062,254.043,159.495,253.665Z" transform="translate(-131.108 -208.975)" fill="#442e3a"/>
        </g>
      </g>
      <g id="Group_4" data-name="Group 4" transform="translate(2.677)">
        <g id="Group_3" data-name="Group 3" transform="translate(7.076)">
          <path id="Path_13" data-name="Path 13" d="M242.231,231.684l-11.005-6.355-.048-.029-30.092-17.372-.068.044-5.985-3.439c-7.322-4.229-13.96-4.079-18.763-.43L139.2,225.74c1.92-.863,6.444-1.893,14.528,1.613,1.838.8,6.091,3.078,11.956,6.353,15.261,8.875,27.258,15.8,30.793,17.612q2.187,1.266,4.411,2.554c9.794,6.389,20.5,17.989,24.4,28.917,4.476,12.536,5.937,56,5.937,56l37.516-21.74V282.335C268.741,262.845,256.849,240.123,242.231,231.684Z" transform="translate(-138.081 -201.362)" fill="#c6b7b8"/>
          <path id="Path_14" data-name="Path 14" d="M139.858,211.443a4.9,4.9,0,0,0-1.12.653Z" transform="translate(-138.738 -187.065)" fill="#c6b7b8"/>
        </g>
        <path id="Path_15" data-name="Path 15" d="M197.012,233.551,162.32,213.523c-14.618-8.442-26.508.551-26.508,20.04v34.711l4.077,2.353V235.918c0-16.492,10.062-24.1,22.431-16.959l34.691,20.03Z" transform="translate(-135.812 -188.613)" fill="#e0d4d3"/>
        <path id="Path_16" data-name="Path 16" d="M190.558,236.9l-41.375-23.887V218.5l14.857,8.58v-.051l26.518,15.31c12.369,7.141,22.431,26.368,22.431,42.86v34.711l4.079,2.353V287.553C217.069,268.062,205.176,245.338,190.558,236.9Z" transform="translate(-116.849 -184.84)" fill="#e0d4d3"/>
      </g>
    </g>
    <g id="Group_9" data-name="Group 9" transform="translate(12.346)">
      <path id="Path_17" data-name="Path 17" d="M167.149,193.869l-26.942,1.169,154.955-89.354,28.092-1.857Z" transform="translate(-112.798 -100.698)" fill="#e52525"/>
      <g id="Group_7" data-name="Group 7" transform="translate(0 90.041)">
        <path id="Path_18" data-name="Path 18" d="M250.116,350.293,174.961,305.81a8.553,8.553,0,0,0-8.614-.058l-5.366,3.081L129.03,278.623s-.157-44.662-.157-60.8c0-31.512,11.058-53.817,18.6-65.775,5.223-8.287,21.928-17.138,35.755-9.155l66.892,37.163Z" transform="translate(-128.873 -139.768)" fill="#f73131"/>
        <g id="Group_6" data-name="Group 6" transform="translate(14.173 12.284)">
          <path id="Path_19" data-name="Path 19" d="M143.226,180.279c11.45-29.751,24.84-25.925,43.216-15.476,12.657,7.194,25.5,14.981,35.066,20.736v53.812L140.464,192.53c.075-.7.155-1.318.249-1.76C141.475,187.169,142.058,183.319,143.226,180.279Z" transform="translate(-126.608 -127.418)" fill="#bad8f8"/>
          <path id="Path_20" data-name="Path 20" d="M144.448,163.543c7.109-16.845,15.138-20.736,27.488-17.8,7,1.661,42.509,23.512,57.7,32.984v24.245c-9.562-5.755-22.409-13.542-35.066-20.736-18.376-10.449-31.765-14.275-43.216,15.476-1.168,3.04-1.751,6.889-2.512,10.49-.094.443-.174,1.064-.249,1.76l-13.856-8S136.548,182.269,144.448,163.543Z" transform="translate(-134.734 -144.848)" fill="#9ec8e8"/>
        </g>
        <path id="Path_21" data-name="Path 21" d="M166.277,150.543v99.631l7.576,4.374V154.917Z" transform="translate(-75.827 -124.487)" fill="#f73131"/>
        <path id="Path_22" data-name="Path 22" d="M222.37,220.513v15.4c-5.134-3.373-37.77-24.576-57.829-37.131-11.948-7.479-14.981-6-14.981,6.374v27.676l-5.272-9.658s-.375-30.747.539-40.51c.592-6.309,5.9-4.527,14.2.148C163.566,185.372,222.37,220.513,222.37,220.513Z" transform="translate(-107.119 -84.713)" fill="#e52525"/>
      </g>
      <g id="Group_8" data-name="Group 8" transform="translate(156.104)">
        <path id="Path_23" data-name="Path 23" d="M314.673,300.965l-121.086-71.67s-.16-32.568-.16-48.7c0-31.511,11.061-53.819,18.6-65.775,5.223-8.287,21.928-17.138,35.755-9.155l66.892,37.163Z" transform="translate(-193.427 -102.533)" fill="#e52525"/>
      </g>
      <path id="Path_24" data-name="Path 24" d="M218.241,231.031l156.106-90.042-66.892-37.162L151.349,193.869Z" transform="translate(-96.998 -100.698)" fill="#ff4848"/>
      <path id="Path_25" data-name="Path 25" d="M335.117,119.195,179.011,209.237V379.471l156.106-90.042Z" transform="translate(-57.768 -78.904)" fill="#e52525"/>
    </g>
    <g id="Group_13" data-name="Group 13" transform="translate(0 19.338)">
      <g id="Group_10" data-name="Group 10" transform="translate(115.554 47.401)">
        <path id="Path_26" data-name="Path 26" d="M191.684,138.991a17.74,17.74,0,0,0-17.01,0h-3.122v4.563c0,3.719,5.206,6.735,11.627,6.735s11.627-3.016,11.627-6.735v-4.563Z" transform="translate(-171.553 -120.648)" fill="#33212a"/>
        <path id="Path_27" data-name="Path 27" d="M194.806,141.668c0,3.719-5.206,6.735-11.627,6.735s-11.627-3.015-11.627-6.735,5.206-6.737,11.627-6.737S194.806,137.946,194.806,141.668Z" transform="translate(-171.553 -123.326)" fill="#442e3a"/>
        <path id="Path_28" data-name="Path 28" d="M188.167,131.8h-13.9l-1.323,14.316c0,2.646,3.7,4.793,8.273,4.793s8.275-2.147,8.275-4.793Z" transform="translate(-169.583 -127.77)" fill="#ffc033"/>
        <ellipse id="Ellipse_5" data-name="Ellipse 5" cx="6.95" cy="4.027" rx="6.95" ry="4.027" transform="translate(4.682)" fill="#ffdc48"/>
      </g>
      <g id="Group_11" data-name="Group 11" transform="translate(157.678 23.273)">
        <path id="Path_29" data-name="Path 29" d="M209.1,129.012a17.736,17.736,0,0,0-17.007,0h-3.122v4.563c0,3.719,5.2,6.735,11.624,6.735s11.627-3.015,11.627-6.735v-4.563Z" transform="translate(-188.972 -110.671)" fill="#33212a"/>
        <ellipse id="Ellipse_6" data-name="Ellipse 6" cx="11.626" cy="6.736" rx="11.626" ry="6.736" transform="translate(0 11.605)" fill="#442e3a"/>
        <path id="Path_30" data-name="Path 30" d="M205.585,121.819h-13.9l-1.323,14.316c0,2.645,3.7,4.793,8.273,4.793s8.273-2.147,8.273-4.793Z" transform="translate(-187.002 -117.793)" fill="#ffc033"/>
        <path id="Path_31" data-name="Path 31" d="M204.809,124.18c0,2.225-3.112,4.026-6.95,4.026s-6.95-1.8-6.95-4.026,3.112-4.026,6.95-4.026S204.809,121.958,204.809,124.18Z" transform="translate(-186.226 -120.154)" fill="#ffdc48"/>
      </g>
      <g id="Group_12" data-name="Group 12" transform="translate(198.094)">
        <path id="Path_32" data-name="Path 32" d="M225.815,119.388a17.736,17.736,0,0,0-17.007,0h-3.122v4.563c0,3.722,5.2,6.737,11.627,6.737s11.627-3.016,11.627-6.737v-4.563Z" transform="translate(-205.686 -101.047)" fill="#33212a"/>
        <path id="Path_33" data-name="Path 33" d="M228.939,122.066c0,3.719-5.206,6.735-11.627,6.735s-11.627-3.016-11.627-6.735,5.2-6.737,11.627-6.737S228.939,118.347,228.939,122.066Z" transform="translate(-205.686 -103.724)" fill="#442e3a"/>
        <path id="Path_34" data-name="Path 34" d="M222.3,112.195H208.4l-1.323,14.316c0,2.646,3.7,4.793,8.273,4.793s8.273-2.147,8.273-4.793Z" transform="translate(-203.716 -108.169)" fill="#ffc033"/>
        <path id="Path_35" data-name="Path 35" d="M221.522,114.556c0,2.225-3.11,4.026-6.95,4.026s-6.95-1.8-6.95-4.026,3.112-4.026,6.95-4.026S221.522,112.334,221.522,114.556Z" transform="translate(-202.94 -110.53)" fill="#ffdc48"/>
      </g>
      <path id="Path_36" data-name="Path 36" d="M173.206,224.058a6.626,6.626,0,0,0-3.093-5.6l-33.92-21.362-.152-3.54s-6.681,0-9.271,5.605c-1.654,3.576-1.359,9.724-1.751,17.058-.578,10.8-1.577,25.967-1.146,34,.5,9.3,5.01,10.335,18.311,17.59l10.71,5.84s-.334-3.913.215-19.138c.155-4.317,1.548-11.885,5.506-15.716,3.18-3.078,9.864-6.046,14.591-9.3Z" transform="translate(-123.768 7.211)" fill="#2b1722"/>
    </g>
    <g id="Group_17" data-name="Group 17" transform="translate(131.28 276.823)">
      <g id="Group_14" data-name="Group 14" transform="translate(0)">
        <path id="Path_37" data-name="Path 37" d="M179.241,263.633l80.55-46.184,47.343,65.738-81.018,46.776Z" transform="translate(-176.375 -216.383)" fill="#2b1722"/>
        <path id="Path_38" data-name="Path 38" d="M221.249,264.075l33.9,19.575c5.429,3.134,9.871-.225,9.871-7.465V256.62c0-7.24-4.442-15.728-9.871-18.864l-33.9-19.573c-5.429-3.134-9.871.222-9.871,7.465v19.566C211.378,252.453,215.82,260.941,221.249,264.075Z" transform="translate(-130.799 -217.008)" fill="#2b1722"/>
        <path id="Path_39" data-name="Path 39" d="M187.927,283.183l33.9,19.573c5.429,3.136,9.873-.223,9.873-7.463V275.728c0-7.24-4.445-15.73-9.873-18.864l-33.9-19.573c-5.429-3.136-9.871.222-9.871,7.463v19.568C178.056,271.559,182.5,280.049,187.927,283.183Z" transform="translate(-178.056 -189.911)" fill="#442e3a"/>
        <path id="Path_40" data-name="Path 40" d="M188.246,274.552l25.048,14.461c4.012,2.314,7.293-.167,7.293-5.514V269.041c0-5.349-3.282-11.619-7.293-13.936l-25.048-14.461c-4.012-2.314-7.293.167-7.293,5.513v14.458C180.953,265.963,184.234,272.236,188.246,274.552Z" transform="translate(-173.947 -184.717)" fill="#2b1722"/>
      </g>
      <g id="Group_15" data-name="Group 15" transform="translate(58.126 32.639)">
        <path id="Path_41" data-name="Path 41" d="M203.278,277.13l80.55-46.183,47.342,65.738L250.153,343.46Z" transform="translate(-200.412 -229.88)" fill="#2d1d26"/>
        <path id="Path_42" data-name="Path 42" d="M245.286,277.575l33.9,19.573c5.429,3.134,9.871-.225,9.871-7.463V270.117c0-7.24-4.442-15.728-9.871-18.864l-33.9-19.573c-5.429-3.134-9.871.225-9.871,7.465V258.71C235.415,265.95,239.857,274.438,245.286,277.575Z" transform="translate(-154.836 -230.505)" fill="#33212a"/>
        <path id="Path_43" data-name="Path 43" d="M211.966,296.679l33.9,19.575c5.429,3.134,9.874-.225,9.874-7.465V289.224c0-7.24-4.445-15.73-9.874-18.864l-33.9-19.573c-5.431-3.134-9.873.225-9.873,7.463v19.568C202.093,285.057,206.535,293.545,211.966,296.679Z" transform="translate(-202.093 -203.408)" fill="#442e3a"/>
        <path id="Path_44" data-name="Path 44" d="M212.283,288.049l25.048,14.461c4.012,2.317,7.293-.165,7.293-5.513V282.54c0-5.349-3.282-11.619-7.293-13.936l-25.048-14.461c-4.009-2.317-7.293.164-7.293,5.514v14.456C204.99,279.462,208.274,285.732,212.283,288.049Z" transform="translate(-197.984 -198.214)" fill="#2d1d26"/>
      </g>
      <g id="Group_16" data-name="Group 16" transform="translate(116.521 66.02)">
        <path id="Path_45" data-name="Path 45" d="M227.427,290.934l80.55-46.183,47.342,65.738L274.3,357.265Z" transform="translate(-224.559 -243.684)" fill="#2b1722"/>
        <path id="Path_46" data-name="Path 46" d="M269.436,291.378l33.9,19.573c5.431,3.136,9.874-.223,9.874-7.463V283.923c0-7.24-4.442-15.73-9.874-18.864l-33.9-19.573c-5.431-3.136-9.873.222-9.873,7.462v19.568C259.563,279.756,264.005,288.244,269.436,291.378Z" transform="translate(-178.984 -244.31)" fill="#2b1722"/>
        <path id="Path_47" data-name="Path 47" d="M236.115,310.485l33.9,19.573c5.429,3.136,9.871-.225,9.871-7.463V303.027c0-7.24-4.442-15.728-9.871-18.862l-33.9-19.573c-5.429-3.136-9.874.222-9.874,7.463v19.566C226.241,298.861,230.686,307.351,236.115,310.485Z" transform="translate(-226.241 -217.212)" fill="#442e3a"/>
        <path id="Path_48" data-name="Path 48" d="M236.432,301.855l25.048,14.461c4.012,2.314,7.293-.167,7.293-5.516V296.344c0-5.349-3.282-11.619-7.293-13.936l-25.048-14.461c-4.012-2.317-7.293.165-7.293,5.513v14.456C229.139,293.266,232.42,299.539,236.432,301.855Z" transform="translate(-222.131 -212.019)" fill="#2b1722"/>
      </g>
    </g>
    <g id="Group_24" data-name="Group 24" transform="translate(305.209 406.124)">
      <path id="Path_49" data-name="Path 49" d="M254.542,337.721l43.322-27.263s-9.852-22.233-10.285-22.233-17.16-10.219-24.315-6.527-10.737,12.047-11.332,22.044S254.542,337.721,254.542,337.721Z" transform="translate(-247.319 -255.706)" fill="#ad9e9f"/>
      <g id="Group_19" data-name="Group 19" transform="translate(0 28.662)">
        <path id="Path_50" data-name="Path 50" d="M353.931,357.264c0-27.074-16.461-58.525-36.766-70.249-5.134-2.962-15.977-4.694-20.813-4.684-3.8.007-14.708,3.576-27.688,13.276-10.9,8.14-12.089,21.742-12.089,21.742l41.308,84.842s7.62,5.484,19.728.832c5.327-2.048,12.824-6.834,16.862-9.549,8.043-5.417,11.852-9.4,14.19-13.663a57.6,57.6,0,0,0,3.042-7.051A50.1,50.1,0,0,0,353.931,357.264Z" transform="translate(-240.63 -282.331)" fill="#2b1722"/>
        <ellipse id="Ellipse_7" data-name="Ellipse 7" cx="31.932" cy="56.443" rx="31.932" ry="56.443" transform="translate(0 28.686) rotate(-23.051)" fill="#442e3a"/>
        <path id="Path_51" data-name="Path 51" d="M258.911,318.627c0,21.319,12.961,46.084,28.951,55.316s28.951-.568,28.951-21.887-12.962-46.084-28.951-55.316S258.911,297.308,258.911,318.627Z" transform="translate(-237.317 -266.822)" fill="#2b1722"/>
        <ellipse id="Ellipse_8" data-name="Ellipse 8" cx="18.993" cy="33.572" rx="18.993" ry="33.572" transform="translate(20.861 45.065) rotate(-23.051)" fill="#e0d4d3"/>
        <g id="Group_18" data-name="Group 18" transform="translate(31.081 40.348)">
          <path id="Path_52" data-name="Path 52" d="M282.474,301.373c10.848,6.263,19.643,23.067,19.643,37.53s-8.8,21.111-19.643,14.848-19.64-23.065-19.64-37.528S271.627,295.11,282.474,301.373Zm4.259,4.851a17.121,17.121,0,0,0-4.157-3.24c-1.685-.924-3.482-2.292-7.276-2.007a3.454,3.454,0,0,0-2.058.977c-.614.653-.491,1.465.2,2.8a47.63,47.63,0,0,0,2.488,4.4c.445.663.716.363,1.637.447a9.411,9.411,0,0,1,2.643.467,18.056,18.056,0,0,1,4.365,2.624c.634.505.943.341,1.2-.017a12.738,12.738,0,0,0,1.584-3.579A3.183,3.183,0,0,0,286.733,306.224Zm-14.72,15.3c0,7.7,4.684,16.652,10.461,19.989s10.461-.208,10.461-7.91-4.684-16.654-10.461-19.989S272.013,313.82,272.013,321.524Zm27.248,6.05a36.291,36.291,0,0,0-4.1-10.674,27.844,27.844,0,0,0-3.434-5.221c-.941-.783-1.441-.484-1.753.227a15.531,15.531,0,0,0-1.195,4.009,2.479,2.479,0,0,0,.493,1.9,39.224,39.224,0,0,1,3.2,5.811,35.68,35.68,0,0,1,1.354,3.988c.43,1.422.389,1.976.921,2.4a22.524,22.524,0,0,0,3.335,2.089c.982.527,1.456.38,1.538-.866A14.178,14.178,0,0,0,299.262,327.574Zm-4.367,24.874c.525,0,1.976-1.289,2.8-2.575.887-1.4,2.075-2.539,2.587-7.835a13.821,13.821,0,0,0-.239-3.62c-.3-1.4-.834-1.98-1.8-2.28a13.25,13.25,0,0,0-3.221-.7c-.5-.01-.358.621-.578,1.768a15.492,15.492,0,0,1-.776,3.083,10.088,10.088,0,0,1-2.445,3.415c-.433.377-.387.941-.208,1.6a39.613,39.613,0,0,0,1.961,5.349C293.431,351.7,294.017,352.458,294.894,352.448ZM276.8,346.787a14.68,14.68,0,0,0,2.375,2.856c4.116,3.639,5.808,3.751,7.458,4.239,1.521.45,3.509.5,3.905.179.665-.539.566-1.475.174-2.537a39.465,39.465,0,0,0-2.307-5.228c-.334-.607-.694-1.057-1.286-1.069a11.19,11.19,0,0,1-4.234-1.025,17.377,17.377,0,0,1-2.752-1.818c-.975-.718-1.316-1.279-1.681-.96a11.913,11.913,0,0,0-1.918,2.534C276.03,344.785,276.035,345.546,276.8,346.787Zm-11-17.747a36.234,36.234,0,0,0,4.764,10.4,14.5,14.5,0,0,0,2.379,2.841c.95.82,1.393.592,1.707-.467a21.945,21.945,0,0,0,.856-3.806c.07-.675-.36-1.035-1.076-2.341a36.038,36.038,0,0,1-1.9-3.76,39.422,39.422,0,0,1-1.913-6.34,2.5,2.5,0,0,0-1.016-1.688,15.908,15.908,0,0,0-3.719-1.993c-.73-.285-1.3-.147-1.4,1.064A27.61,27.61,0,0,0,265.8,329.04Zm.056-9.922a11.455,11.455,0,0,0,3.632,1.018c.426.027.747-.119.781-.953a20.028,20.028,0,0,1,.878-5.194,10.442,10.442,0,0,1,1.352-2.43c.527-.8.921-.82.721-1.6a48.1,48.1,0,0,0-1.627-4.824c-.534-1.407-1.052-2.027-1.922-1.954a3.467,3.467,0,0,0-2.034,1.033c-2.641,2.873-2.791,5.2-3.194,7.146a18.732,18.732,0,0,0-.293,5.424A3.036,3.036,0,0,0,265.859,319.118Z" transform="translate(-262.834 -299.016)" fill="#fff"/>
          <path id="Path_53" data-name="Path 53" d="M275.491,307.3c4.706,2.716,8.519,10,8.519,16.274s-3.814,9.155-8.519,6.44-8.517-10-8.517-16.277S270.787,304.581,275.491,307.3Z" transform="translate(-256.963 -288.721)" fill="#c6b7b8"/>
          <path id="Path_54" data-name="Path 54" d="M282.882,324.956a22.527,22.527,0,0,1-3.335-2.089c-.532-.428-.491-.982-.921-2.4a35.683,35.683,0,0,0-1.354-3.988,39.235,39.235,0,0,0-3.2-5.811,2.479,2.479,0,0,1-.493-1.9,15.533,15.533,0,0,1,1.195-4.009c.312-.711.812-1.011,1.753-.227a27.85,27.85,0,0,1,3.434,5.221,36.291,36.291,0,0,1,4.1,10.674,14.179,14.179,0,0,1,.355,3.671C284.337,325.336,283.863,325.483,282.882,324.956Z" transform="translate(-247.637 -291.861)" fill="#442e3a"/>
          <path id="Path_55" data-name="Path 55" d="M279.9,311.549c-.254.358-.563.522-1.2.017a18.056,18.056,0,0,0-4.365-2.624,9.412,9.412,0,0,0-2.643-.467c-.921-.085-1.192.215-1.637-.447a47.632,47.632,0,0,1-2.488-4.4c-.687-1.332-.81-2.145-.2-2.8a3.454,3.454,0,0,1,2.058-.977c3.794-.285,5.591,1.083,7.276,2.007a17.123,17.123,0,0,1,4.157,3.24,3.183,3.183,0,0,1,.619,2.873A12.739,12.739,0,0,1,279.9,311.549Z" transform="translate(-256.963 -297.889)" fill="#442e3a"/>
          <path id="Path_56" data-name="Path 56" d="M263.728,308.919c.4-1.949.554-4.273,3.194-7.146a3.466,3.466,0,0,1,2.034-1.033c.871-.073,1.388.547,1.922,1.954a48.092,48.092,0,0,1,1.627,4.824c.2.783-.193.808-.721,1.6a10.445,10.445,0,0,0-1.352,2.43,20.029,20.029,0,0,0-.878,5.194c-.034.834-.355.979-.781.953a11.456,11.456,0,0,1-3.632-1.018,3.036,3.036,0,0,1-1.707-2.338A18.729,18.729,0,0,1,263.728,308.919Z" transform="translate(-262.117 -296.579)" fill="#442e3a"/>
          <path id="Path_57" data-name="Path 57" d="M264.92,308.549a15.908,15.908,0,0,1,3.719,1.993,2.5,2.5,0,0,1,1.016,1.688,39.418,39.418,0,0,0,1.913,6.34,36.053,36.053,0,0,0,1.9,3.76c.716,1.306,1.146,1.666,1.076,2.341a21.937,21.937,0,0,1-.856,3.806c-.314,1.059-.757,1.286-1.707.467A14.5,14.5,0,0,1,269.6,326.1a36.234,36.234,0,0,1-4.764-10.4,27.611,27.611,0,0,1-1.323-6.087C263.621,308.4,264.19,308.263,264.92,308.549Z" transform="translate(-261.87 -285.676)" fill="#442e3a"/>
          <path id="Path_58" data-name="Path 58" d="M270.625,316.607c.365-.319.706.242,1.681.96a17.376,17.376,0,0,0,2.752,1.818,11.19,11.19,0,0,0,4.234,1.025c.592.012.953.462,1.286,1.069a39.462,39.462,0,0,1,2.307,5.228c.392,1.062.491,2-.174,2.537-.4.324-2.384.271-3.905-.179-1.649-.488-3.342-.6-7.458-4.239a14.682,14.682,0,0,1-2.375-2.856c-.769-1.241-.774-2-.266-2.829A11.916,11.916,0,0,1,270.625,316.607Z" transform="translate(-255.003 -274.2)" fill="#442e3a"/>
          <path id="Path_59" data-name="Path 59" d="M274.771,322.344a10.088,10.088,0,0,0,2.445-3.415,15.488,15.488,0,0,0,.776-3.083c.22-1.146.08-1.777.578-1.768a13.253,13.253,0,0,1,3.221.7c.962.3,1.5.875,1.8,2.28a13.822,13.822,0,0,1,.239,3.62c-.513,5.3-1.7,6.437-2.587,7.835-.82,1.286-2.271,2.57-2.8,2.575-.878.01-1.463-.75-1.92-1.789a39.616,39.616,0,0,1-1.961-5.349C274.384,323.285,274.338,322.722,274.771,322.344Z" transform="translate(-246.384 -277.654)" fill="#442e3a"/>
        </g>
      </g>
      <g id="Group_21" data-name="Group 21" transform="translate(79.353 75.176)">
        <path id="Path_60" data-name="Path 60" d="M386.746,376.5c0-27.077-16.461-58.527-36.766-70.251-5.134-2.962-15.977-4.694-20.813-4.684-3.8.007-14.708,3.577-27.688,13.276-10.9,8.14-12.089,21.742-12.089,21.742L330.7,421.426s7.62,5.484,19.728.832c5.327-2.048,12.824-6.834,16.862-9.552,8.043-5.412,11.852-9.4,14.19-13.658a57.776,57.776,0,0,0,3.042-7.054A50.1,50.1,0,0,0,386.746,376.5Z" transform="translate(-273.445 -301.566)" fill="#2b1722"/>
        <ellipse id="Ellipse_9" data-name="Ellipse 9" cx="31.932" cy="56.443" rx="31.932" ry="56.443" transform="translate(0 28.686) rotate(-23.051)" fill="#442e3a"/>
        <ellipse id="Ellipse_10" data-name="Ellipse 10" cx="25.144" cy="44.444" rx="25.144" ry="44.444" transform="translate(10.005 37.469) rotate(-23.051)" fill="#2b1722"/>
        <path id="Path_61" data-name="Path 61" d="M295.043,335.915c0,16.1,9.789,34.81,21.868,41.784s21.868-.43,21.868-16.533-9.791-34.81-21.868-41.784S295.043,319.81,295.043,335.915Z" transform="translate(-265.427 -280.021)" fill="#e0d4d3"/>
        <g id="Group_20" data-name="Group 20" transform="translate(31.081 40.348)">
          <path id="Path_62" data-name="Path 62" d="M315.29,320.608c10.848,6.263,19.643,23.065,19.643,37.53s-8.8,21.111-19.643,14.848-19.641-23.065-19.641-37.528S304.442,314.345,315.29,320.608Zm4.259,4.851a17.068,17.068,0,0,0-4.157-3.24c-1.685-.924-3.482-2.292-7.276-2.007a3.454,3.454,0,0,0-2.058.977c-.614.653-.491,1.465.2,2.8a47.3,47.3,0,0,0,2.488,4.4c.445.663.716.363,1.637.447a9.327,9.327,0,0,1,2.643.469,17.978,17.978,0,0,1,4.365,2.621c.634.505.943.341,1.2-.017a12.766,12.766,0,0,0,1.584-3.579A3.176,3.176,0,0,0,319.548,325.459Zm-14.72,15.3c0,7.7,4.684,16.654,10.461,19.989s10.461-.206,10.461-7.908-4.684-16.654-10.461-19.989S304.828,333.055,304.828,340.757Zm27.248,6.053a36.293,36.293,0,0,0-4.1-10.674,27.846,27.846,0,0,0-3.434-5.221c-.941-.784-1.441-.484-1.753.23a15.483,15.483,0,0,0-1.195,4.007,2.479,2.479,0,0,0,.493,1.9,39.223,39.223,0,0,1,3.2,5.811,35.667,35.667,0,0,1,1.354,3.988c.43,1.422.389,1.976.921,2.4a22.522,22.522,0,0,0,3.335,2.089c.982.527,1.456.38,1.538-.866A14.173,14.173,0,0,0,332.077,346.81Zm-4.367,24.874c.525,0,1.976-1.286,2.8-2.575.887-1.4,2.075-2.539,2.587-7.835a13.8,13.8,0,0,0-.239-3.618c-.3-1.407-.834-1.983-1.8-2.283a13.254,13.254,0,0,0-3.221-.7c-.5-.01-.358.622-.578,1.768a15.411,15.411,0,0,1-.776,3.081,10.074,10.074,0,0,1-2.445,3.417c-.433.377-.387.941-.208,1.6a39.623,39.623,0,0,0,1.961,5.349C326.246,370.933,326.832,371.693,327.709,371.683Zm-18.091-5.661a14.758,14.758,0,0,0,2.375,2.856c4.116,3.639,5.809,3.751,7.458,4.239,1.521.452,3.509.5,3.905.179.665-.542.566-1.475.174-2.537a39.438,39.438,0,0,0-2.307-5.226c-.334-.609-.694-1.059-1.286-1.071a11.189,11.189,0,0,1-4.234-1.025,17.215,17.215,0,0,1-2.752-1.819c-.974-.718-1.315-1.279-1.681-.96a11.916,11.916,0,0,0-1.918,2.534C308.845,364.017,308.85,364.782,309.619,366.022Zm-11-17.747a36.238,36.238,0,0,0,4.764,10.4,14.426,14.426,0,0,0,2.38,2.841c.95.82,1.393.592,1.707-.467a21.931,21.931,0,0,0,.856-3.806c.07-.675-.36-1.035-1.076-2.341a36.068,36.068,0,0,1-1.9-3.763,39.458,39.458,0,0,1-1.913-6.336,2.5,2.5,0,0,0-1.016-1.69,15.914,15.914,0,0,0-3.719-1.993c-.73-.285-1.3-.147-1.4,1.064A27.616,27.616,0,0,0,298.619,348.275Zm.056-9.922a11.456,11.456,0,0,0,3.632,1.018c.426.027.747-.118.781-.953a20.023,20.023,0,0,1,.878-5.194,10.383,10.383,0,0,1,1.352-2.428c.527-.8.921-.822.721-1.606a48.117,48.117,0,0,0-1.627-4.824c-.534-1.407-1.052-2.026-1.922-1.954a3.467,3.467,0,0,0-2.034,1.033c-2.641,2.873-2.791,5.2-3.194,7.146a18.729,18.729,0,0,0-.293,5.424A3.035,3.035,0,0,0,298.674,338.353Z" transform="translate(-295.649 -318.251)" fill="#fff"/>
          <path id="Path_63" data-name="Path 63" d="M308.306,326.532c4.706,2.718,8.519,10,8.519,16.277s-3.814,9.155-8.519,6.44-8.517-10-8.517-16.277S303.6,323.817,308.306,326.532Z" transform="translate(-289.778 -307.956)" fill="#c6b7b8"/>
          <path id="Path_64" data-name="Path 64" d="M315.7,344.191a22.528,22.528,0,0,1-3.335-2.089c-.532-.428-.491-.982-.921-2.4a35.669,35.669,0,0,0-1.354-3.988,39.225,39.225,0,0,0-3.2-5.811,2.479,2.479,0,0,1-.493-1.9,15.487,15.487,0,0,1,1.195-4.007c.312-.713.813-1.013,1.753-.23a27.842,27.842,0,0,1,3.434,5.221,36.293,36.293,0,0,1,4.1,10.674,14.173,14.173,0,0,1,.355,3.671C317.152,344.571,316.678,344.718,315.7,344.191Z" transform="translate(-280.451 -311.096)" fill="#442e3a"/>
          <path id="Path_65" data-name="Path 65" d="M312.712,330.784c-.254.358-.563.522-1.2.017a17.978,17.978,0,0,0-4.365-2.621,9.327,9.327,0,0,0-2.643-.469c-.921-.085-1.192.215-1.637-.447a47.293,47.293,0,0,1-2.488-4.4c-.687-1.332-.81-2.145-.2-2.8a3.455,3.455,0,0,1,2.058-.977c3.794-.285,5.591,1.083,7.276,2.007a17.067,17.067,0,0,1,4.157,3.24,3.176,3.176,0,0,1,.619,2.873A12.768,12.768,0,0,1,312.712,330.784Z" transform="translate(-289.778 -317.124)" fill="#442e3a"/>
          <path id="Path_66" data-name="Path 66" d="M296.543,328.154c.4-1.949.554-4.273,3.194-7.146a3.467,3.467,0,0,1,2.034-1.033c.871-.073,1.388.547,1.922,1.954a48.114,48.114,0,0,1,1.627,4.824c.2.784-.194.81-.721,1.606a10.383,10.383,0,0,0-1.352,2.428,20.024,20.024,0,0,0-.878,5.194c-.034.834-.355.979-.781.953a11.454,11.454,0,0,1-3.632-1.018,3.035,3.035,0,0,1-1.707-2.338A18.729,18.729,0,0,1,296.543,328.154Z" transform="translate(-294.932 -315.814)" fill="#442e3a"/>
          <path id="Path_67" data-name="Path 67" d="M297.735,327.784a15.913,15.913,0,0,1,3.719,1.993,2.5,2.5,0,0,1,1.016,1.69,39.459,39.459,0,0,0,1.913,6.336,36.053,36.053,0,0,0,1.9,3.763c.716,1.306,1.146,1.666,1.076,2.341a21.944,21.944,0,0,1-.856,3.806c-.314,1.059-.757,1.287-1.707.467a14.426,14.426,0,0,1-2.38-2.841,36.238,36.238,0,0,1-4.764-10.4,27.623,27.623,0,0,1-1.323-6.087C296.436,327.636,297,327.5,297.735,327.784Z" transform="translate(-294.685 -304.911)" fill="#442e3a"/>
          <path id="Path_68" data-name="Path 68" d="M303.44,335.842c.365-.319.706.242,1.681.96a17.221,17.221,0,0,0,2.752,1.818,11.189,11.189,0,0,0,4.234,1.025c.592.012.953.462,1.286,1.071a39.437,39.437,0,0,1,2.307,5.226c.392,1.062.491,2-.174,2.537-.4.324-2.384.273-3.905-.179-1.649-.488-3.342-.6-7.458-4.239a14.757,14.757,0,0,1-2.375-2.856c-.769-1.241-.774-2-.266-2.829A11.916,11.916,0,0,1,303.44,335.842Z" transform="translate(-287.818 -293.434)" fill="#442e3a"/>
          <path id="Path_69" data-name="Path 69" d="M307.586,341.579a10.073,10.073,0,0,0,2.445-3.417,15.407,15.407,0,0,0,.776-3.081c.22-1.146.08-1.777.578-1.768a13.246,13.246,0,0,1,3.221.7c.962.3,1.5.875,1.8,2.283a13.791,13.791,0,0,1,.239,3.618c-.513,5.3-1.7,6.437-2.587,7.835-.82,1.289-2.271,2.57-2.8,2.575-.878.01-1.463-.75-1.92-1.789a39.639,39.639,0,0,1-1.961-5.349C307.2,342.52,307.153,341.957,307.586,341.579Z" transform="translate(-279.199 -296.889)" fill="#442e3a"/>
        </g>
      </g>
      <g id="Group_23" data-name="Group 23" transform="translate(3.146)">
        <g id="Group_22" data-name="Group 22" transform="translate(7.076)">
          <path id="Path_70" data-name="Path 70" d="M465.081,398.19c0-19.488-11.893-42.212-26.511-50.652l-46.127-26.632v.048L310.5,273.648c-7.322-4.227-13.96-4.079-18.763-.43l-37.068,21.638c1.92-.863,6.444-1.891,14.528,1.615,2.123.919,7.463,3.816,14.792,7.941l4.08,2.3c33.059,18.756,96.561,56.325,104.916,60.544,10.734,5.419,24.163,18.845,28.639,31.381s5.937,56,5.937,56l37.518-21.74Z" transform="translate(-253.551 -270.478)" fill="#c6b7b8"/>
          <path id="Path_71" data-name="Path 71" d="M255.328,280.559a5.008,5.008,0,0,0-1.12.653Z" transform="translate(-254.208 -256.182)" fill="#c6b7b8"/>
        </g>
        <path id="Path_72" data-name="Path 72" d="M405.858,356.529,359.731,329.9v.048l-81.94-47.307c-14.618-8.439-26.508.551-26.508,20.042v34.708l4.077,2.355V305.034c0-16.492,10.062-24.1,22.431-16.956l101.552,58.629v-.048l26.516,15.31c12.369,7.141,22.434,26.365,22.434,42.858v34.711l4.077,2.355V407.181C432.368,387.69,420.476,364.969,405.858,356.529Z" transform="translate(-251.282 -257.729)" fill="#e0d4d3"/>
      </g>
    </g>
    <g id="Group_31" data-name="Group 31" transform="translate(438.898 332.44)">
      <path id="Path_73" data-name="Path 73" d="M308.528,307.252l43.32-27.263S342,257.757,341.565,257.757s-17.159-10.222-24.315-6.529-10.737,12.05-11.334,22.047S308.528,307.252,308.528,307.252Z" transform="translate(-304.449 -225.237)" fill="#ad9e9f"/>
      <g id="Group_26" data-name="Group 26" transform="translate(6.861 28.663)">
        <path id="Path_74" data-name="Path 74" d="M407.914,326.794c0-27.074-16.461-58.525-36.766-70.249-5.131-2.962-15.975-4.694-20.811-4.684-3.8.007-14.707,3.576-27.691,13.276-10.894,8.14-12.086,21.742-12.086,21.742l41.305,84.842s7.62,5.482,19.73.832c5.325-2.048,12.824-6.834,16.86-9.549,8.045-5.417,11.854-9.4,14.192-13.663a58.341,58.341,0,0,0,3.042-7.051A50.108,50.108,0,0,0,407.914,326.794Z" transform="translate(-304.619 -251.861)" fill="#2b1722"/>
        <path id="Path_75" data-name="Path 75" d="M310.051,290.142c0,27.072,16.461,58.523,36.766,70.246s36.769-.721,36.769-27.795-16.463-58.525-36.769-70.249S310.051,263.068,310.051,290.142Z" transform="translate(-305.341 -243.249)" fill="#442e3a"/>
        <ellipse id="Ellipse_11" data-name="Ellipse 11" cx="25.144" cy="44.444" rx="25.144" ry="44.444" transform="translate(0 37.468) rotate(-23.051)" fill="#2b1722"/>
        <path id="Path_76" data-name="Path 76" d="M316.212,286.211c0,16.1,9.791,34.81,21.868,41.784s21.87-.43,21.87-16.533-9.791-34.81-21.87-41.784S316.212,270.105,316.212,286.211Z" transform="translate(-296.603 -230.316)" fill="#e0d4d3"/>
        <g id="Group_25" data-name="Group 25" transform="translate(21.074 40.348)">
          <path id="Path_77" data-name="Path 77" d="M336.461,270.9c10.848,6.263,19.641,23.065,19.641,37.53s-8.793,21.111-19.641,14.848-19.643-23.065-19.643-37.528S325.613,264.64,336.461,270.9Zm4.258,4.851a17.084,17.084,0,0,0-4.159-3.24c-1.683-.924-3.482-2.292-7.274-2.01a3.485,3.485,0,0,0-2.06.979c-.612.653-.488,1.465.2,2.8a48.451,48.451,0,0,0,2.488,4.4c.447.663.716.363,1.637.447a9.383,9.383,0,0,1,2.643.467,18.147,18.147,0,0,1,4.367,2.621c.631.508.941.343,1.2-.017a12.787,12.787,0,0,0,1.582-3.577A3.174,3.174,0,0,0,340.719,275.754ZM326,291.052c0,7.7,4.682,16.654,10.461,19.989s10.461-.205,10.461-7.907-4.684-16.654-10.461-19.989S326,283.35,326,291.052Zm27.246,6.053a36.216,36.216,0,0,0-4.1-10.674,27.739,27.739,0,0,0-3.431-5.221c-.943-.783-1.441-.484-1.753.227a15.507,15.507,0,0,0-1.2,4.009,2.472,2.472,0,0,0,.5,1.9,39.686,39.686,0,0,1,3.2,5.811,36.33,36.33,0,0,1,1.354,3.985c.43,1.424.387,1.978.919,2.406a22.3,22.3,0,0,0,3.337,2.087c.979.527,1.456.382,1.538-.863A14.3,14.3,0,0,0,353.246,297.1Zm-4.367,24.874c.525-.007,1.976-1.289,2.8-2.575.888-1.4,2.077-2.539,2.588-7.835a13.625,13.625,0,0,0-.239-3.62c-.3-1.407-.832-1.98-1.794-2.28a13.254,13.254,0,0,0-3.221-.7c-.5-.012-.36.621-.58,1.768a15.241,15.241,0,0,1-.776,3.081,10.028,10.028,0,0,1-2.442,3.414c-.435.38-.387.941-.208,1.606a39.1,39.1,0,0,0,1.961,5.349C347.415,321.228,348,321.988,348.878,321.978Zm-18.09-5.663a14.619,14.619,0,0,0,2.375,2.858c4.116,3.639,5.811,3.751,7.46,4.239,1.521.45,3.509.5,3.905.179.663-.542.563-1.475.174-2.537a39.783,39.783,0,0,0-2.307-5.228c-.334-.607-.694-1.057-1.286-1.069a11.179,11.179,0,0,1-4.234-1.025,17.258,17.258,0,0,1-2.754-1.821c-.972-.718-1.313-1.279-1.678-.958a11.78,11.78,0,0,0-1.918,2.534C330.014,314.312,330.021,315.076,330.788,316.315Zm-11-17.745a36.336,36.336,0,0,0,4.761,10.4,14.5,14.5,0,0,0,2.382,2.841c.95.82,1.39.59,1.7-.467a21.778,21.778,0,0,0,.856-3.806c.07-.675-.358-1.035-1.074-2.341a36.142,36.142,0,0,1-1.906-3.763,39.125,39.125,0,0,1-1.91-6.338,2.5,2.5,0,0,0-1.016-1.688,16.022,16.022,0,0,0-3.719-1.995c-.733-.283-1.3-.145-1.4,1.066A27.34,27.34,0,0,0,319.79,298.57Zm.056-9.922a11.437,11.437,0,0,0,3.632,1.018c.426.024.745-.118.779-.953a19.971,19.971,0,0,1,.88-5.2,10.377,10.377,0,0,1,1.349-2.428c.53-.8.924-.82.723-1.6a48.675,48.675,0,0,0-1.628-4.824c-.537-1.407-1.052-2.029-1.922-1.954a3.486,3.486,0,0,0-2.036,1.033c-2.638,2.873-2.791,5.2-3.192,7.146a18.648,18.648,0,0,0-.293,5.424A3.035,3.035,0,0,0,319.846,288.648Z" transform="translate(-316.818 -268.546)" fill="#fff"/>
          <path id="Path_78" data-name="Path 78" d="M329.477,276.827c4.7,2.718,8.519,10,8.519,16.277s-3.816,9.155-8.519,6.44-8.519-10-8.519-16.277S324.771,274.112,329.477,276.827Z" transform="translate(-310.947 -258.251)" fill="#c6b7b8"/>
          <path id="Path_79" data-name="Path 79" d="M336.868,294.484a22.3,22.3,0,0,1-3.337-2.087c-.532-.428-.489-.982-.919-2.406a36.32,36.32,0,0,0-1.354-3.985,39.677,39.677,0,0,0-3.2-5.811,2.472,2.472,0,0,1-.5-1.9,15.5,15.5,0,0,1,1.2-4.009c.312-.711.81-1.011,1.753-.227a27.746,27.746,0,0,1,3.431,5.221,36.215,36.215,0,0,1,4.1,10.674,14.3,14.3,0,0,1,.358,3.671C338.324,294.866,337.847,295.011,336.868,294.484Z" transform="translate(-301.62 -261.391)" fill="#442e3a"/>
          <path id="Path_80" data-name="Path 80" d="M333.883,281.077c-.256.36-.566.525-1.2.017a18.145,18.145,0,0,0-4.367-2.621,9.383,9.383,0,0,0-2.643-.467c-.921-.085-1.19.215-1.637-.447a48.47,48.47,0,0,1-2.488-4.4c-.684-1.332-.808-2.145-.2-2.8a3.485,3.485,0,0,1,2.06-.979c3.792-.283,5.591,1.086,7.274,2.01a17.085,17.085,0,0,1,4.159,3.24,3.174,3.174,0,0,1,.617,2.873A12.789,12.789,0,0,1,333.883,281.077Z" transform="translate(-310.946 -267.42)" fill="#442e3a"/>
          <path id="Path_81" data-name="Path 81" d="M317.713,278.449c.4-1.949.554-4.273,3.192-7.146a3.486,3.486,0,0,1,2.036-1.033c.871-.075,1.386.547,1.922,1.954a48.685,48.685,0,0,1,1.628,4.824c.2.784-.193.808-.723,1.6a10.378,10.378,0,0,0-1.349,2.428,19.969,19.969,0,0,0-.88,5.2c-.034.834-.353.977-.779.953a11.435,11.435,0,0,1-3.632-1.018,3.035,3.035,0,0,1-1.707-2.338A18.649,18.649,0,0,1,317.713,278.449Z" transform="translate(-316.1 -266.109)" fill="#442e3a"/>
          <path id="Path_82" data-name="Path 82" d="M318.9,278.077a16.021,16.021,0,0,1,3.719,1.995,2.5,2.5,0,0,1,1.016,1.688,39.128,39.128,0,0,0,1.91,6.338,36.148,36.148,0,0,0,1.906,3.763c.716,1.306,1.144,1.666,1.074,2.341a21.771,21.771,0,0,1-.856,3.806c-.314,1.057-.754,1.286-1.7.467a14.5,14.5,0,0,1-2.382-2.841,36.335,36.335,0,0,1-4.761-10.4,27.335,27.335,0,0,1-1.323-6.086C317.6,277.932,318.172,277.794,318.9,278.077Z" transform="translate(-315.853 -255.206)" fill="#442e3a"/>
          <path id="Path_83" data-name="Path 83" d="M324.61,286.137c.365-.322.706.239,1.678.958a17.256,17.256,0,0,0,2.754,1.821,11.179,11.179,0,0,0,4.234,1.025c.592.012.953.462,1.286,1.069a39.785,39.785,0,0,1,2.307,5.228c.389,1.062.488,1.995-.174,2.537-.4.324-2.384.271-3.905-.179-1.649-.488-3.344-.6-7.46-4.239a14.619,14.619,0,0,1-2.375-2.858c-.767-1.238-.774-2-.264-2.827A11.781,11.781,0,0,1,324.61,286.137Z" transform="translate(-308.986 -243.73)" fill="#442e3a"/>
          <path id="Path_84" data-name="Path 84" d="M328.756,291.872a10.03,10.03,0,0,0,2.442-3.414,15.247,15.247,0,0,0,.776-3.081c.22-1.146.08-1.78.58-1.768a13.253,13.253,0,0,1,3.221.7c.962.3,1.5.873,1.794,2.28a13.623,13.623,0,0,1,.239,3.62c-.51,5.3-1.7,6.437-2.588,7.835-.82,1.286-2.271,2.568-2.8,2.575-.875.01-1.463-.75-1.918-1.789a39.1,39.1,0,0,1-1.961-5.349C328.369,292.813,328.321,292.252,328.756,291.872Z" transform="translate(-300.367 -247.184)" fill="#442e3a"/>
        </g>
      </g>
      <g id="Group_28" data-name="Group 28" transform="translate(76.208 75.177)">
        <path id="Path_85" data-name="Path 85" d="M440.729,346.029c0-27.074-16.461-58.525-36.766-70.249-5.131-2.962-15.975-4.694-20.811-4.684-3.8.007-14.707,3.576-27.691,13.276-10.894,8.14-12.086,21.742-12.086,21.742l41.305,84.842s7.62,5.484,19.73.829c5.325-2.046,12.824-6.831,16.86-9.547,8.045-5.417,11.854-9.4,14.192-13.663a58.344,58.344,0,0,0,3.042-7.051A50.12,50.12,0,0,0,440.729,346.029Z" transform="translate(-327.428 -271.096)" fill="#2b1722"/>
        <ellipse id="Ellipse_12" data-name="Ellipse 12" cx="31.932" cy="56.443" rx="31.932" ry="56.443" transform="translate(0 28.686) rotate(-23.051)" fill="#442e3a"/>
        <ellipse id="Ellipse_13" data-name="Ellipse 13" cx="25.144" cy="44.444" rx="25.144" ry="44.444" transform="translate(10.006 37.468) rotate(-23.051)" fill="#2b1722"/>
        <ellipse id="Ellipse_14" data-name="Ellipse 14" cx="18.993" cy="33.572" rx="18.993" ry="33.572" transform="translate(20.861 45.064) rotate(-23.051)" fill="#e0d4d3"/>
        <g id="Group_27" data-name="Group 27" transform="translate(31.08 40.348)">
          <path id="Path_86" data-name="Path 86" d="M369.276,290.138c10.848,6.263,19.641,23.065,19.641,37.53s-8.793,21.111-19.641,14.848-19.643-23.065-19.643-37.528S358.428,283.875,369.276,290.138Zm4.258,4.851a17.145,17.145,0,0,0-4.159-3.24c-1.683-.924-3.482-2.292-7.274-2.007a3.467,3.467,0,0,0-2.06.977c-.612.651-.489,1.465.2,2.8a48.768,48.768,0,0,0,2.488,4.4c.447.663.716.36,1.637.445a9.38,9.38,0,0,1,2.643.469,18.148,18.148,0,0,1,4.367,2.621c.631.508.941.343,1.2-.015a12.868,12.868,0,0,0,1.581-3.579A3.174,3.174,0,0,0,373.534,294.989Zm-14.72,15.3c0,7.7,4.682,16.654,10.461,19.989s10.461-.2,10.461-7.907-4.684-16.654-10.461-19.989S358.815,302.585,358.815,310.287Zm27.246,6.053a36.218,36.218,0,0,0-4.1-10.674,27.657,27.657,0,0,0-3.431-5.221c-.943-.784-1.441-.484-1.753.227a15.5,15.5,0,0,0-1.2,4.009,2.472,2.472,0,0,0,.5,1.9,39.67,39.67,0,0,1,3.2,5.811,36.18,36.18,0,0,1,1.354,3.988c.431,1.422.387,1.976.919,2.4a22.537,22.537,0,0,0,3.337,2.089c.979.525,1.456.38,1.538-.866A14.3,14.3,0,0,0,386.061,316.34Zm-4.367,24.874c.525-.007,1.976-1.289,2.8-2.575.887-1.4,2.077-2.539,2.587-7.835a13.62,13.62,0,0,0-.239-3.62c-.3-1.4-.832-1.98-1.794-2.28a13.261,13.261,0,0,0-3.221-.7c-.5-.01-.36.622-.58,1.768a15.287,15.287,0,0,1-.776,3.081,10.064,10.064,0,0,1-2.442,3.417c-.435.377-.387.938-.208,1.6a39,39,0,0,0,1.961,5.349C380.23,340.463,380.818,341.223,381.693,341.213ZM363.6,335.55a14.761,14.761,0,0,0,2.375,2.858c4.116,3.637,5.811,3.751,7.46,4.239,1.521.45,3.509.5,3.905.179.663-.542.563-1.475.174-2.537a39.774,39.774,0,0,0-2.307-5.228c-.334-.607-.694-1.057-1.286-1.069a11.224,11.224,0,0,1-4.234-1.025,17.386,17.386,0,0,1-2.754-1.819c-.972-.721-1.313-1.282-1.678-.96a11.779,11.779,0,0,0-1.918,2.534C362.829,333.547,362.836,334.312,363.6,335.55Zm-11-17.745a36.31,36.31,0,0,0,4.761,10.4,14.5,14.5,0,0,0,2.382,2.841c.95.82,1.39.59,1.7-.467a21.716,21.716,0,0,0,.856-3.806c.07-.675-.358-1.037-1.074-2.341a36.118,36.118,0,0,1-1.906-3.763,39.183,39.183,0,0,1-1.91-6.338,2.5,2.5,0,0,0-1.016-1.688,16.02,16.02,0,0,0-3.719-1.995c-.733-.283-1.3-.145-1.4,1.066A27.362,27.362,0,0,0,352.6,317.8Zm.056-9.922a11.437,11.437,0,0,0,3.632,1.018c.426.024.745-.118.779-.953a19.968,19.968,0,0,1,.88-5.2,10.38,10.38,0,0,1,1.349-2.428c.53-.8.924-.82.723-1.6a48.965,48.965,0,0,0-1.627-4.827c-.537-1.4-1.052-2.026-1.922-1.949a3.454,3.454,0,0,0-2.036,1.03c-2.638,2.873-2.791,5.2-3.192,7.146a18.646,18.646,0,0,0-.293,5.424A3.035,3.035,0,0,0,352.661,307.883Z" transform="translate(-349.633 -287.781)" fill="#fff"/>
          <path id="Path_87" data-name="Path 87" d="M362.292,296.062c4.7,2.716,8.519,10,8.519,16.277s-3.816,9.155-8.519,6.44-8.519-10-8.519-16.277S357.586,293.347,362.292,296.062Z" transform="translate(-343.762 -277.486)" fill="#c6b7b8"/>
          <path id="Path_88" data-name="Path 88" d="M369.683,313.721a22.542,22.542,0,0,1-3.337-2.089c-.532-.428-.488-.982-.919-2.4a36.191,36.191,0,0,0-1.354-3.988,39.674,39.674,0,0,0-3.2-5.811,2.472,2.472,0,0,1-.5-1.9,15.506,15.506,0,0,1,1.2-4.009c.312-.711.81-1.011,1.753-.227a27.66,27.66,0,0,1,3.431,5.221,36.217,36.217,0,0,1,4.1,10.674,14.3,14.3,0,0,1,.358,3.671C371.139,314.1,370.662,314.246,369.683,313.721Z" transform="translate(-334.435 -280.626)" fill="#442e3a"/>
          <path id="Path_89" data-name="Path 89" d="M366.7,300.314c-.256.358-.566.522-1.2.015a18.149,18.149,0,0,0-4.367-2.621,9.38,9.38,0,0,0-2.643-.469c-.921-.085-1.19.218-1.637-.445a48.765,48.765,0,0,1-2.488-4.4c-.684-1.332-.808-2.147-.2-2.8a3.468,3.468,0,0,1,2.06-.977c3.792-.285,5.591,1.083,7.274,2.007a17.145,17.145,0,0,1,4.159,3.24,3.174,3.174,0,0,1,.617,2.873A12.866,12.866,0,0,1,366.7,300.314Z" transform="translate(-343.761 -286.654)" fill="#442e3a"/>
          <path id="Path_90" data-name="Path 90" d="M350.528,297.683c.4-1.949.554-4.273,3.192-7.146a3.454,3.454,0,0,1,2.036-1.03c.871-.077,1.386.544,1.922,1.949a48.974,48.974,0,0,1,1.627,4.827c.2.784-.193.808-.723,1.6a10.375,10.375,0,0,0-1.349,2.428,19.969,19.969,0,0,0-.88,5.2c-.034.834-.353.977-.779.953a11.438,11.438,0,0,1-3.632-1.018,3.035,3.035,0,0,1-1.707-2.338A18.649,18.649,0,0,1,350.528,297.683Z" transform="translate(-348.915 -285.343)" fill="#442e3a"/>
          <path id="Path_91" data-name="Path 91" d="M351.72,297.312a16.016,16.016,0,0,1,3.719,1.995,2.5,2.5,0,0,1,1.016,1.688,39.189,39.189,0,0,0,1.91,6.338,36.13,36.13,0,0,0,1.906,3.763c.716,1.3,1.144,1.666,1.074,2.341a21.72,21.72,0,0,1-.856,3.806c-.314,1.057-.754,1.287-1.7.467a14.5,14.5,0,0,1-2.382-2.841,36.307,36.307,0,0,1-4.761-10.4,27.359,27.359,0,0,1-1.323-6.087C350.419,297.167,350.987,297.029,351.72,297.312Z" transform="translate(-348.668 -274.441)" fill="#442e3a"/>
          <path id="Path_92" data-name="Path 92" d="M357.425,305.372c.365-.322.706.239,1.678.96a17.385,17.385,0,0,0,2.754,1.819,11.225,11.225,0,0,0,4.234,1.025c.592.012.953.462,1.286,1.069a39.767,39.767,0,0,1,2.307,5.228c.389,1.062.488,2-.174,2.537-.4.324-2.384.271-3.905-.179-1.649-.488-3.344-.6-7.46-4.239a14.762,14.762,0,0,1-2.375-2.858c-.767-1.238-.774-2-.264-2.827A11.779,11.779,0,0,1,357.425,305.372Z" transform="translate(-341.801 -262.965)" fill="#442e3a"/>
          <path id="Path_93" data-name="Path 93" d="M361.571,311.109a10.066,10.066,0,0,0,2.442-3.417,15.289,15.289,0,0,0,.776-3.081c.22-1.146.082-1.777.58-1.768a13.26,13.26,0,0,1,3.221.7c.962.3,1.5.875,1.794,2.28a13.62,13.62,0,0,1,.239,3.62c-.51,5.3-1.7,6.437-2.587,7.835-.82,1.286-2.271,2.568-2.8,2.575-.875.01-1.463-.75-1.918-1.79a38.983,38.983,0,0,1-1.961-5.349C361.184,312.048,361.136,311.487,361.571,311.109Z" transform="translate(-333.182 -266.419)" fill="#442e3a"/>
        </g>
      </g>
      <g id="Group_30" data-name="Group 30">
        <g id="Group_29" data-name="Group 29" transform="translate(7.076)">
          <path id="Path_94" data-name="Path 94" d="M519.063,367.72c0-19.488-11.893-42.212-26.511-50.652l-46.127-26.634v.051l-81.94-47.307c-7.322-4.229-13.96-4.079-18.763-.43l-37.066,21.638c1.918-.861,6.442-1.891,14.529,1.613,2.123.921,7.46,3.816,14.792,7.941l4.077,2.307c33.059,18.753,96.561,56.325,104.916,60.544,10.734,5.419,24.165,18.845,28.641,31.381s5.937,56,5.937,56l37.516-21.74Z" transform="translate(-307.534 -240.008)" fill="#c6b7b8"/>
          <path id="Path_95" data-name="Path 95" d="M309.314,250.089a4.9,4.9,0,0,0-1.122.655Z" transform="translate(-308.192 -225.711)" fill="#c6b7b8"/>
        </g>
        <path id="Path_96" data-name="Path 96" d="M459.844,326.057l-46.127-26.632v.051l-81.941-47.307c-14.618-8.44-26.511.551-26.511,20.04v34.711l4.079,2.355V274.564c0-16.492,10.062-24.1,22.431-16.959l101.55,58.632v-.051l26.518,15.31c12.369,7.143,22.431,26.368,22.431,42.86v34.711l4.08,2.355V376.711C486.355,357.22,474.462,334.5,459.844,326.057Z" transform="translate(-305.266 -227.259)" fill="#e0d4d3"/>
      </g>
    </g>
    <g id="Group_32" data-name="Group 32" transform="translate(133.589 158.8)">
      <path id="Path_97" data-name="Path 97" d="M367.03,186.5,210.923,279.678l-31.912-18.3L335.117,168.2Z" transform="translate(-179.011 -168.202)" fill="#ff4848"/>
      <path id="Path_98" data-name="Path 98" d="M348.314,231.367,192.208,324.543v-55.6l156.106-93.176Z" transform="translate(-160.295 -157.47)" fill="#e52525"/>
      <path id="Path_99" data-name="Path 99" d="M210.923,225.033l-31.912-18.3v55.6l31.912,18.3Z" transform="translate(-179.011 -113.557)" fill="#f73131"/>
      <path id="Path_100" data-name="Path 100" d="M202.716,223.207l-21.565-12.366V253.87l21.565,12.366Z" transform="translate(-175.977 -107.731)" fill="#ffc033"/>
    </g>
    <g id="Group_39" data-name="Group 39" transform="translate(165.144 155.419)">
      <g id="Group_33" data-name="Group 33" transform="translate(0 68.478)">
        <path id="Path_101" data-name="Path 101" d="M543.935,495.7l163.5-94.4v-7.25L355.561,198.12l-163.5,94.4Z" transform="translate(-192.06 -190.87)" fill="#f9a30b"/>
        <path id="Path_102" data-name="Path 102" d="M543.935,492.7l163.5-94.4L355.561,195.122l-163.5,94.4Z" transform="translate(-192.06 -195.122)" fill="#ffdc48"/>
        <path id="Path_103" data-name="Path 103" d="M549.539,439.133l15.141-8.659L212.8,227.295l-15.141,8.659Z" transform="translate(-184.113 -149.494)" fill="#442e3a"/>
        <path id="Path_104" data-name="Path 104" d="M600.47,409.76l15.141-8.659L263.735,197.922l-15.141,8.659Z" transform="translate(-111.882 -191.151)" fill="#442e3a"/>
        <path id="Path_105" data-name="Path 105" d="M543.935,437.338v7.25L192.06,241.408v-7.25Z" transform="translate(-192.06 -139.761)" fill="#ffc033"/>
      </g>
      <g id="Group_35" data-name="Group 35" transform="translate(158.416)">
        <g id="Group_34" data-name="Group 34">
          <path id="Path_106" data-name="Path 106" d="M275.973,167.331l-.464.268-5.368,3.134-1.231,10.123,3.441,69.068,1.814,7.787,5.8-3.39c1.054-8.13,6.316-48.893,7.973-65.843C289.365,173.877,281.722,164.417,275.973,167.331Z" transform="translate(-241.488 -166.804)" fill="#f9a30b"/>
          <path id="Path_107" data-name="Path 107" d="M290.247,255.729c1.054-8.128,6.316-48.891,7.973-65.84,1.847-18.872-11.465-29.176-16.248-15.244-4.462,12.993-22.049,56.421-24.4,62.218Z" transform="translate(-257.57 -164.822)" fill="#ffc033"/>
        </g>
      </g>
      <g id="Group_36" data-name="Group 36" transform="translate(25.326 9.585)">
        <path id="Path_108" data-name="Path 108" d="M272.764,171.2c2.007,1.161,3.635,4.268,3.635,6.945s-1.627,3.908-3.635,2.749-3.635-4.271-3.635-6.945S270.756,170.045,272.764,171.2Z" transform="translate(-108.087 -170.768)" fill="#ffdc48"/>
        <path id="Path_109" data-name="Path 109" d="M206.167,209.59c2.007,1.158,3.635,4.268,3.635,6.945s-1.627,3.905-3.635,2.747-3.635-4.268-3.635-6.945S204.16,208.43,206.167,209.59Z" transform="translate(-202.533 -116.33)" fill="#ffdc48"/>
        <path id="Path_110" data-name="Path 110" d="M203.291,263.639l4.048,10.314,161.341-92.98-4.769-10.205Z" transform="translate(-201.457 -170.768)" fill="#ffdc48"/>
      </g>
      <g id="Group_38" data-name="Group 38" transform="translate(0 90.26)">
        <g id="Group_37" data-name="Group 37">
          <path id="Path_111" data-name="Path 111" d="M210.463,204.656l-.462.271-5.371,3.132L203.4,218.181l3.441,69.069,1.816,7.787,5.8-3.39c1.054-8.128,6.316-48.891,7.973-65.84C223.857,211.2,216.213,201.744,210.463,204.656Z" transform="translate(-175.979 -204.129)" fill="#f9a30b"/>
          <path id="Path_112" data-name="Path 112" d="M224.737,293.053c1.054-8.128,6.314-48.891,7.973-65.84,1.845-18.872-11.467-29.173-16.248-15.242-4.462,12.991-22.052,56.419-24.4,62.218Z" transform="translate(-192.06 -202.146)" fill="#ffc033"/>
        </g>
      </g>
    </g>
  </g>
  <g id="Group_66" data-name="Group 66" transform="translate(0 167.742)">
    <g id="Group_41" data-name="Group 41" transform="translate(334.378 274.08)">
      <path id="Path_113" data-name="Path 113" d="M183.092,429.344l1.64-164.921c.01-.74,2.716-.711,2.706.036L185.8,429.383A1.356,1.356,0,1,1,183.092,429.344Z" transform="translate(-183.092 -263.884)" fill="#ffdc48"/>
    </g>
    <g id="Group_42" data-name="Group 42" transform="translate(144.277 166.586)">
      <path id="Path_114" data-name="Path 114" d="M104.479,384.892l1.637-164.921c.012-.74,2.718-.711,2.706.036l-1.637,164.923A1.356,1.356,0,1,1,104.479,384.892Z" transform="translate(-104.479 -219.432)" fill="#ffdc48"/>
    </g>
    <g id="Group_56" data-name="Group 56" transform="translate(0 194.169)">
      <g id="Group_43" data-name="Group 43" transform="translate(302.961 95.052)">
        <path id="Path_115" data-name="Path 115" d="M189.515,271.446c-4.907,1.308-14.589,9.513-17.529,12.076,2.863,4.534,7.692,11.82,9.131,11.818,2.085,0,9.581-8.3,12.478-15.542,1.381-3.448,1.093-6.224-.138-8.033A5.758,5.758,0,0,0,189.515,271.446Z" transform="translate(-167.425 -268.594)" fill="#ff8080"/>
        <path id="Path_116" data-name="Path 116" d="M185.922,270.83c-5.376,2.74-15.822,10.086-15.822,10.086a18.417,18.417,0,0,1,4.561,4.157C177.6,282.51,187.284,274.3,192.19,273a5.758,5.758,0,0,1,3.942.319C194.589,271.052,189.421,269.047,185.922,270.83Z" transform="translate(-170.1 -270.145)" fill="#ff6161"/>
      </g>
      <path id="Path_117" data-name="Path 117" d="M53.513,322.033l9.757-6.445,20.366-26.511s-17.522-4.677-26.624,3.194S53.513,322.033,53.513,322.033Z" transform="translate(-34.902 -150.198)" fill="#ff4848"/>
      <path id="Path_118" data-name="Path 118" d="M129.287,365.435l31.47-21.461-1.347-11.5s-17.522-4.677-26.624,3.194S129.287,365.435,129.287,365.435Z" transform="translate(72.562 -88.649)" fill="#ff4848"/>
      <g id="Group_45" data-name="Group 45" transform="translate(205.537 249.894)">
        <path id="Path_119" data-name="Path 119" d="M191.348,385.254c0-18.506-11.252-40.007-25.132-48.02a23.052,23.052,0,0,0-10.979-3.057,30.621,30.621,0,0,0-16.105,4.51c-7.907,4.89-8.971,15.992-8.971,15.992l28.235,58s9.092,4.462,18.434-.653a28.936,28.936,0,0,0,10.918-11.356,39.755,39.755,0,0,0,2.08-4.822A34.24,34.24,0,0,0,191.348,385.254Z" transform="translate(-129.318 -334.177)" fill="#2b1722"/>
        <path id="Path_120" data-name="Path 120" d="M129.812,358.923c0,18.506,11.252,40,25.132,48.018s25.132-.493,25.132-19-11.252-40-25.132-48.018S129.812,340.417,129.812,358.923Z" transform="translate(-129.812 -330.304)" fill="#442e3a"/>
        <path id="Path_121" data-name="Path 121" d="M131.822,357.477c0,14.635,8.9,31.637,19.875,37.973s19.875-.389,19.875-15.024-8.9-31.637-19.875-37.973S131.822,342.842,131.822,357.477Z" transform="translate(-126.961 -325.823)" fill="#8c7e81"/>
        <g id="Group_44" data-name="Group 44" transform="translate(6.193 17.526)">
          <path id="Path_122" data-name="Path 122" d="M150.224,343.566c9.859,5.692,17.851,20.963,17.851,34.109s-7.992,19.188-17.851,13.5-17.851-20.963-17.851-34.109S140.365,337.876,150.224,343.566Zm3.869,4.411a15.419,15.419,0,0,0-3.777-2.945c-1.533-.841-3.165-2.084-6.614-1.826a3.145,3.145,0,0,0-1.872.887c-.556.592-.445,1.332.179,2.544a43.585,43.585,0,0,0,2.261,4c.406.6.65.329,1.49.406a8.427,8.427,0,0,1,2.4.426,16.419,16.419,0,0,1,3.966,2.382c.576.462.858.312,1.088-.014a11.549,11.549,0,0,0,1.439-3.253A2.88,2.88,0,0,0,154.093,347.977Zm-13.377,13.9c0,7,4.256,15.135,9.508,18.168s9.506-.189,9.506-7.189-4.256-15.133-9.506-18.166S140.716,354.878,140.716,361.879Zm24.762,5.5a32.91,32.91,0,0,0-3.726-9.7,25.161,25.161,0,0,0-3.12-4.745c-.856-.713-1.311-.44-1.594.208a14.046,14.046,0,0,0-1.086,3.642,2.248,2.248,0,0,0,.447,1.729,35.845,35.845,0,0,1,2.907,5.281,32.388,32.388,0,0,1,1.231,3.625c.392,1.291.353,1.8.837,2.184a20.4,20.4,0,0,0,3.03,1.9c.892.479,1.325.346,1.4-.786A12.913,12.913,0,0,0,165.478,367.38Zm-3.968,22.605c.476,0,1.8-1.17,2.542-2.341.805-1.27,1.886-2.307,2.35-7.119a12.42,12.42,0,0,0-.218-3.291c-.271-1.279-.757-1.8-1.632-2.072a12.066,12.066,0,0,0-2.926-.634c-.455-.01-.326.566-.527,1.606a13.862,13.862,0,0,1-.706,2.8,9.07,9.07,0,0,1-2.22,3.1c-.394.343-.351.856-.189,1.458a35.856,35.856,0,0,0,1.782,4.863C160.18,389.3,160.714,390,161.51,389.985Zm-16.441-5.146a13.367,13.367,0,0,0,2.157,2.595c3.741,3.308,5.281,3.41,6.781,3.855,1.381.409,3.19.457,3.55.162.6-.491.513-1.342.157-2.307a35.792,35.792,0,0,0-2.1-4.749c-.3-.551-.631-.96-1.168-.972a10.192,10.192,0,0,1-3.85-.931,15.773,15.773,0,0,1-2.5-1.654c-.883-.653-1.195-1.163-1.526-.873a10.872,10.872,0,0,0-1.744,2.3C144.365,383.019,144.37,383.713,145.068,384.839Zm-10-16.129a32.977,32.977,0,0,0,4.329,9.455,13.072,13.072,0,0,0,2.164,2.58c.863.747,1.265.539,1.55-.421a19.783,19.783,0,0,0,.779-3.461c.063-.612-.326-.941-.977-2.128a32.813,32.813,0,0,1-1.731-3.417,35.7,35.7,0,0,1-1.736-5.76,2.265,2.265,0,0,0-.924-1.536,14.424,14.424,0,0,0-3.381-1.811c-.665-.259-1.18-.133-1.274.967A24.972,24.972,0,0,0,135.072,368.71Zm.051-9.017a10.4,10.4,0,0,0,3.3.926c.387.022.68-.106.709-.866a18.19,18.19,0,0,1,.8-4.723,9.441,9.441,0,0,1,1.226-2.205c.481-.723.839-.747.658-1.458a44.73,44.73,0,0,0-1.48-4.387c-.486-1.277-.958-1.843-1.748-1.772a3.14,3.14,0,0,0-1.848.938,11.1,11.1,0,0,0-2.9,6.493,16.905,16.905,0,0,0-.266,4.931A2.751,2.751,0,0,0,135.122,359.693Z" transform="translate(-132.373 -341.424)" fill="#fff"/>
          <path id="Path_123" data-name="Path 123" d="M143.878,348.95c4.275,2.469,7.741,9.092,7.741,14.792s-3.465,8.321-7.741,5.852-7.743-9.09-7.743-14.792S139.6,346.484,143.878,348.95Z" transform="translate(-127.038 -332.068)" fill="#7a6c6f"/>
          <path id="Path_124" data-name="Path 124" d="M150.592,365a20.4,20.4,0,0,1-3.03-1.9c-.484-.387-.445-.892-.837-2.184a32.39,32.39,0,0,0-1.231-3.625,35.842,35.842,0,0,0-2.907-5.281,2.248,2.248,0,0,1-.447-1.729,14.047,14.047,0,0,1,1.086-3.642c.283-.648.738-.921,1.594-.208a25.16,25.16,0,0,1,3.119,4.745,32.911,32.911,0,0,1,3.726,9.7,12.913,12.913,0,0,1,.326,3.335C151.917,365.344,151.485,365.477,150.592,365Z" transform="translate(-118.561 -334.922)" fill="#442e3a"/>
          <path id="Path_125" data-name="Path 125" d="M147.88,352.814c-.23.326-.513.476-1.088.014a16.42,16.42,0,0,0-3.966-2.382,8.428,8.428,0,0,0-2.4-.426c-.839-.077-1.083.2-1.49-.406a43.585,43.585,0,0,1-2.261-4c-.624-1.211-.735-1.951-.179-2.544a3.145,3.145,0,0,1,1.872-.888c3.448-.259,5.081.984,6.614,1.826a15.418,15.418,0,0,1,3.777,2.945,2.88,2.88,0,0,1,.561,2.609A11.549,11.549,0,0,1,147.88,352.814Z" transform="translate(-127.037 -340.4)" fill="#442e3a"/>
          <path id="Path_126" data-name="Path 126" d="M133.187,350.423a11.1,11.1,0,0,1,2.9-6.493,3.14,3.14,0,0,1,1.848-.938c.791-.07,1.262.5,1.748,1.772a44.719,44.719,0,0,1,1.48,4.387c.181.711-.177.735-.658,1.458a9.441,9.441,0,0,0-1.226,2.205,18.19,18.19,0,0,0-.8,4.723c-.029.759-.322.887-.708.866a10.4,10.4,0,0,1-3.3-.926,2.751,2.751,0,0,1-1.55-2.123A16.906,16.906,0,0,1,133.187,350.423Z" transform="translate(-131.721 -339.209)" fill="#442e3a"/>
          <path id="Path_127" data-name="Path 127" d="M134.268,350.088a14.422,14.422,0,0,1,3.381,1.811,2.265,2.265,0,0,1,.924,1.536,35.692,35.692,0,0,0,1.736,5.76,32.813,32.813,0,0,0,1.731,3.417c.65,1.187,1.04,1.516.977,2.128a19.781,19.781,0,0,1-.779,3.461c-.285.96-.687,1.168-1.55.421a13.073,13.073,0,0,1-2.164-2.58,32.977,32.977,0,0,1-4.329-9.455,24.97,24.97,0,0,1-1.2-5.53C133.088,349.955,133.6,349.829,134.268,350.088Z" transform="translate(-131.497 -329.3)" fill="#442e3a"/>
          <path id="Path_128" data-name="Path 128" d="M139.454,357.411c.331-.29.643.22,1.526.873a15.778,15.778,0,0,0,2.5,1.654,10.193,10.193,0,0,0,3.85.931c.537.012.866.421,1.168.972a35.785,35.785,0,0,1,2.1,4.749c.355.965.445,1.816-.157,2.307-.36.3-2.169.247-3.55-.162-1.5-.445-3.04-.547-6.781-3.855a13.367,13.367,0,0,1-2.157-2.595c-.7-1.127-.7-1.821-.242-2.57A10.87,10.87,0,0,1,139.454,357.411Z" transform="translate(-125.257 -318.871)" fill="#442e3a"/>
          <path id="Path_129" data-name="Path 129" d="M143.222,362.625a9.068,9.068,0,0,0,2.22-3.1,13.86,13.86,0,0,0,.706-2.8c.2-1.04.073-1.615.527-1.606a12.062,12.062,0,0,1,2.926.634c.875.271,1.361.793,1.632,2.072a12.421,12.421,0,0,1,.218,3.291c-.464,4.812-1.545,5.85-2.35,7.119-.745,1.17-2.065,2.336-2.542,2.341-.8.01-1.33-.682-1.743-1.625a35.857,35.857,0,0,1-1.782-4.863C142.871,363.481,142.828,362.968,143.222,362.625Z" transform="translate(-117.422 -322.01)" fill="#442e3a"/>
        </g>
      </g>
      <g id="Group_47" data-name="Group 47" transform="translate(20.146 142.074)">
        <path id="Path_130" data-name="Path 130" d="M114.684,340.665c0-18.506-11.252-40-25.132-48.018a23.033,23.033,0,0,0-10.979-3.057,30.6,30.6,0,0,0-16.105,4.51c-7.907,4.887-8.974,15.992-8.974,15.992l28.235,57.993s9.092,4.464,18.434-.65a28.945,28.945,0,0,0,10.921-11.356,39.343,39.343,0,0,0,2.077-4.822A34.241,34.241,0,0,0,114.684,340.665Z" transform="translate(-52.655 -289.59)" fill="#2b1722"/>
        <path id="Path_131" data-name="Path 131" d="M53.147,314.334c0,18.506,11.252,40.007,25.132,48.021s25.13-.493,25.13-19-11.252-40.007-25.13-48.018S53.147,295.828,53.147,314.334Z" transform="translate(-53.147 -285.717)" fill="#442e3a"/>
        <path id="Path_132" data-name="Path 132" d="M55.157,312.889c0,14.635,8.9,31.637,19.873,37.975S94.9,350.475,94.9,335.84s-8.9-31.637-19.875-37.975S55.157,298.254,55.157,312.889Z" transform="translate(-50.296 -281.237)" fill="#8c7e81"/>
        <g id="Group_46" data-name="Group 46" transform="translate(6.191 17.525)">
          <path id="Path_133" data-name="Path 133" d="M73.558,298.979c9.859,5.692,17.851,20.963,17.851,34.109s-7.992,19.186-17.851,13.494-17.851-20.961-17.851-34.106S63.7,293.287,73.558,298.979Zm3.872,4.411a15.546,15.546,0,0,0-3.78-2.948c-1.531-.839-3.163-2.082-6.611-1.823a3.145,3.145,0,0,0-1.872.887c-.556.592-.445,1.332.179,2.544a43.564,43.564,0,0,0,2.261,4c.4.6.65.331,1.487.406a8.475,8.475,0,0,1,2.4.428,16.281,16.281,0,0,1,3.968,2.382c.576.46.856.31,1.088-.017A11.6,11.6,0,0,0,77.991,306,2.878,2.878,0,0,0,77.43,303.39Zm-13.377,13.9c0,7,4.256,15.136,9.506,18.166s9.508-.186,9.508-7.187-4.256-15.135-9.508-18.165S64.052,310.292,64.052,317.292Zm24.762,5.5a33.008,33.008,0,0,0-3.726-9.7,25.247,25.247,0,0,0-3.119-4.745c-.856-.711-1.311-.438-1.594.208a14.158,14.158,0,0,0-1.088,3.644,2.254,2.254,0,0,0,.45,1.729,35.938,35.938,0,0,1,2.907,5.281,33.161,33.161,0,0,1,1.231,3.622c.392,1.294.351,1.8.837,2.186a20.586,20.586,0,0,0,3.03,1.9c.892.479,1.323.346,1.4-.786A12.806,12.806,0,0,0,88.815,322.791ZM84.846,345.4c.476,0,1.794-1.17,2.539-2.341.808-1.27,1.886-2.307,2.353-7.119a12.5,12.5,0,0,0-.218-3.289c-.271-1.279-.757-1.8-1.632-2.072a11.95,11.95,0,0,0-2.928-.634c-.452-.01-.324.563-.525,1.606a14.064,14.064,0,0,1-.706,2.8,9.12,9.12,0,0,1-2.22,3.1c-.4.346-.353.856-.189,1.461a35.385,35.385,0,0,0,1.782,4.861C83.516,344.715,84.048,345.406,84.846,345.4ZM68.4,340.251a13.381,13.381,0,0,0,2.157,2.6c3.741,3.308,5.281,3.41,6.778,3.852,1.383.411,3.19.457,3.552.162.6-.491.513-1.34.157-2.3a36.1,36.1,0,0,0-2.1-4.749c-.3-.554-.631-.962-1.17-.972a10.19,10.19,0,0,1-3.847-.933,15.625,15.625,0,0,1-2.5-1.652c-.885-.655-1.195-1.163-1.526-.873a10.814,10.814,0,0,0-1.743,2.3C67.7,338.432,67.706,339.126,68.4,340.251Zm-10-16.127a33.007,33.007,0,0,0,4.329,9.455,13.076,13.076,0,0,0,2.164,2.58c.863.747,1.265.539,1.55-.423a19.977,19.977,0,0,0,.779-3.458c.063-.614-.326-.943-.977-2.128a32.838,32.838,0,0,1-1.731-3.419,35.616,35.616,0,0,1-1.736-5.76,2.28,2.28,0,0,0-.924-1.536,14.6,14.6,0,0,0-3.381-1.811c-.665-.259-1.18-.133-1.274.967A24.958,24.958,0,0,0,58.408,324.124Zm.051-9.017a10.451,10.451,0,0,0,3.3.926c.387.022.677-.109.709-.868a18.086,18.086,0,0,1,.8-4.72,9.413,9.413,0,0,1,1.226-2.208c.481-.723.839-.745.655-1.458a43.43,43.43,0,0,0-1.48-4.384c-.486-1.279-.955-1.843-1.746-1.775a3.166,3.166,0,0,0-1.85.938,11.139,11.139,0,0,0-2.9,6.5,17.058,17.058,0,0,0-.266,4.928A2.762,2.762,0,0,0,58.459,315.106Z" transform="translate(-55.707 -296.837)" fill="#fff"/>
          <path id="Path_134" data-name="Path 134" d="M67.213,304.364c4.275,2.469,7.741,9.09,7.741,14.792s-3.465,8.321-7.741,5.852-7.743-9.092-7.743-14.792S62.935,301.895,67.213,304.364Z" transform="translate(-50.37 -287.48)" fill="#7a6c6f"/>
          <path id="Path_135" data-name="Path 135" d="M73.928,320.412a20.6,20.6,0,0,1-3.03-1.9c-.486-.389-.445-.892-.837-2.186a33.16,33.16,0,0,0-1.231-3.622,35.938,35.938,0,0,0-2.907-5.281,2.253,2.253,0,0,1-.45-1.729,14.157,14.157,0,0,1,1.088-3.644c.283-.646.738-.919,1.594-.208a25.248,25.248,0,0,1,3.119,4.745,33.009,33.009,0,0,1,3.726,9.7,12.806,12.806,0,0,1,.324,3.337C75.251,320.758,74.821,320.891,73.928,320.412Z" transform="translate(-41.895 -290.335)" fill="#442e3a"/>
          <path id="Path_136" data-name="Path 136" d="M71.215,308.225c-.232.327-.513.476-1.088.017a16.284,16.284,0,0,0-3.968-2.382,8.479,8.479,0,0,0-2.4-.428c-.837-.075-1.083.2-1.487-.406a43.565,43.565,0,0,1-2.261-4c-.624-1.212-.735-1.951-.179-2.544a3.145,3.145,0,0,1,1.872-.888c3.448-.259,5.081.984,6.611,1.823a15.545,15.545,0,0,1,3.78,2.948,2.878,2.878,0,0,1,.561,2.609A11.6,11.6,0,0,1,71.215,308.225Z" transform="translate(-50.37 -295.812)" fill="#442e3a"/>
          <path id="Path_137" data-name="Path 137" d="M56.52,305.838a11.139,11.139,0,0,1,2.9-6.5,3.166,3.166,0,0,1,1.85-.938c.791-.068,1.26.5,1.746,1.775a43.435,43.435,0,0,1,1.48,4.384c.184.713-.174.735-.655,1.458a9.412,9.412,0,0,0-1.226,2.208,18.086,18.086,0,0,0-.8,4.72c-.031.759-.322.89-.709.868a10.449,10.449,0,0,1-3.3-.926,2.762,2.762,0,0,1-1.552-2.126A17.058,17.058,0,0,1,56.52,305.838Z" transform="translate(-55.054 -294.622)" fill="#442e3a"/>
          <path id="Path_138" data-name="Path 138" d="M57.6,305.5a14.6,14.6,0,0,1,3.381,1.811,2.28,2.28,0,0,1,.924,1.536,35.618,35.618,0,0,0,1.736,5.76,32.838,32.838,0,0,0,1.731,3.419c.651,1.185,1.04,1.514.977,2.128a19.979,19.979,0,0,1-.779,3.458c-.285.962-.687,1.17-1.55.423a13.077,13.077,0,0,1-2.164-2.58A33.007,33.007,0,0,1,57.531,312a24.96,24.96,0,0,1-1.2-5.533C56.423,305.367,56.939,305.241,57.6,305.5Z" transform="translate(-54.83 -284.713)" fill="#442e3a"/>
          <path id="Path_139" data-name="Path 139" d="M62.789,312.824c.331-.29.641.218,1.526.873a15.624,15.624,0,0,0,2.5,1.652,10.191,10.191,0,0,0,3.847.933c.539.01.866.418,1.17.972a36.1,36.1,0,0,1,2.1,4.749c.355.965.445,1.814-.157,2.3-.363.3-2.169.249-3.552-.162-1.5-.443-3.037-.544-6.778-3.852a13.383,13.383,0,0,1-2.157-2.6c-.7-1.124-.7-1.818-.242-2.568A10.813,10.813,0,0,1,62.789,312.824Z" transform="translate(-48.589 -274.283)" fill="#442e3a"/>
          <path id="Path_140" data-name="Path 140" d="M66.558,318.036a9.12,9.12,0,0,0,2.22-3.1,14.062,14.062,0,0,0,.706-2.8c.2-1.042.073-1.615.525-1.606a11.952,11.952,0,0,1,2.928.634c.875.271,1.361.793,1.632,2.072a12.5,12.5,0,0,1,.218,3.289c-.467,4.812-1.545,5.85-2.353,7.119-.745,1.17-2.063,2.336-2.539,2.341-.8.01-1.33-.682-1.744-1.625a35.382,35.382,0,0,1-1.782-4.861C66.2,318.892,66.161,318.381,66.558,318.036Z" transform="translate(-40.756 -277.422)" fill="#442e3a"/>
        </g>
      </g>
      <g id="Group_49" data-name="Group 49" transform="translate(5.334)">
        <path id="Path_141" data-name="Path 141" d="M267.405,309.731c-12.454-9.723-27.749-21.3-37.243-28.457-4.679,5.789-13.963,14.749-33.964,27.449-17,10.792-36.824,21.387-55.536,28.663-.583.227,36.353,23.517,61.724,52.533,8.947,10.231,19.174,16.893,42.831,11.17,5.871-1.422,23.993-10.263,39.617-21.568a106.813,106.813,0,0,0,25.306-26.366C299.541,336.167,285.844,324.124,267.405,309.731Z" transform="translate(85.77 -159.31)" fill="#ff8080"/>
        <g id="Group_48" data-name="Group 48">
          <path id="Path_142" data-name="Path 142" d="M452.962,441.7a168.3,168.3,0,0,0-9-16.961c-12.744,15.237-52.859,41.218-62.914,44.275-22.717,6.906-33.146-2.237-42.217-10.335-28.755-25.664-65.956-49.537-65.374-49.764,18.712-7.276,38.536-17.87,55.536-28.663,20-12.7,29.284-21.66,33.964-27.449-1.535-1.158-2.936-2.213-4.133-3.112-9.958-12.246-20.891-32.914-33.918-50.8a74.383,74.383,0,0,0-9.054-10.49c-9.177,2.955-20.707-.692-29.023-4.116-16.935-6.977-33.772-11.552-52.148-12.608-18.2-1.05-40.63,1.419-58.566,4.447s-33.91,12.173-52.946,9.482c11.535-7.53,38.406-24.651,56.508-34.3q13.544-7.222,27.563-13.513c3.393-1.533,6.928-3.255,10.531-4.885a58.47,58.47,0,0,0-6.435-2.024c-1.6-.384-9.385,1.763-20.175,6.824-7.131,3.347-15.273,8.679-24.9,12.845-.921.4-8.35,3.228-11.141,4.759-25.606,14.618-108.091,62.3-108.091,62.3s43.7,25.531,91.289,57.93S258.237,455.87,303.924,487.583s35.1,58.946,35.1,58.946l98.285-56.47,9.564-5.494c5.339-2.445,8.9-5.782,8.9-11.034C455.774,466.834,458.55,455.051,452.962,441.7Z" transform="translate(-47.022 -230.838)" fill="#ff6161"/>
          <path id="Path_143" data-name="Path 143" d="M135.018,250.091c-18.1,9.649-44.974,26.769-56.508,34.3,19.036,2.691,35.006-6.454,52.946-9.482s40.369-5.5,58.566-4.447c18.376,1.057,35.214,5.632,52.148,12.608,8.316,3.424,19.846,7.071,29.023,4.116a56.1,56.1,0,0,0-10.717-7.956c-5.025-2.885-41.305-23.715-53.041-30.455-2.723-1.562-20.676-12.047-34.324-17.082-3.6,1.63-7.139,3.352-10.531,4.885Q148.594,242.893,135.018,250.091Z" transform="translate(-2.366 -229.625)" fill="#ff8080"/>
        </g>
      </g>
      <g id="Group_50" data-name="Group 50" transform="translate(0.658 62.415)">
        <path id="Path_144" data-name="Path 144" d="M346.912,467.523c-8.727-20.85-29.947-42.628-52.767-60.44-14.47-11.3-32.8-25.118-41.373-31.57-9.958-12.246-20.893-32.914-33.92-50.8-5.39-7.4-11.1-13.462-19.771-18.446-5.023-2.885-41.3-23.715-53.041-30.455-3.18-1.826-27.156-15.849-40.759-19.106-2.662-.638-16.664,4.058-39.866,17.515C61.48,276.5,52.947,278.65,49.764,281c-4.307,3.18-4.841,13.124-4.641,30.551.06,5.25-.713,31.052,4.943,38.609l.014,0a48,48,0,0,0,7.973,11.52c-.012-.534-.06-1.078-.06-1.61,0-26.75,16.262-39.044,36.326-27.461,18.91,10.918,34.43,39.151,36.152,64.757,7.511,4.353,24.015,13.854,48.26,27.48,30.934,17.382,56.6,31.69,63.787,35.693,2.193-22.683,17.469-32.426,36.026-21.713,20.061,11.583,36.324,42.657,36.324,69.4,0,.493-.044.943-.056,1.424,5.46,2.321,12.4,5.03,14.78,4.423,10.976-2.8,20.129-6.295,20.129-14.722C349.722,492.658,352.5,480.874,346.912,467.523Z" transform="translate(-45.088 -256.649)" fill="#ff4848"/>
        <path id="Path_145" data-name="Path 145" d="M270.977,396.832c-18.557-10.713-33.833-.97-36.026,21.713-7.184-4-32.854-18.311-63.787-35.693-24.245-13.627-40.749-23.128-48.26-27.48-.01-.609-.085-1.357-.155-2.06-2.389-25.045-17.595-52.073-36-62.7-20.064-11.583-36.326.711-36.326,27.461,0,.532.048,1.076.06,1.61a35.1,35.1,0,0,0,4.8,4.256l.189.135c-.027-.7-.077-1.41-.077-2.106,0-22.75,13.832-33.209,30.895-23.357s30.895,36.283,30.895,59.033c0,.89-.058,1.729-.1,2.58l3.134,1.792,2.718,1.548,111.82,63.618,3.985,2.266c-.031-.781-.087-1.564-.087-2.338,0-22.75,13.832-33.207,30.895-23.355s30.9,36.28,30.9,59.031c0,.665-.051,1.284-.075,1.927.943.339,3.652,1.574,6.873,2.945.012-.481.056-.931.056-1.424C307.3,439.489,291.038,408.416,270.977,396.832Z" transform="translate(-37.52 -214.659)" fill="#f73131"/>
      </g>
      <g id="Group_51" data-name="Group 51" transform="translate(175.916 66.529)">
        <path id="Path_146" data-name="Path 146" d="M214.433,259.74a252.659,252.659,0,0,1-28.39,18.584c-23.94,13.82-68.481,35.521-68.481,35.521l32.445,49.682c18.872-16.524,81.667-52.942,94.077-59.492C240.161,296.837,225.828,274.917,214.433,259.74Z" transform="translate(-117.563 -256.379)" fill="#bbd9f9"/>
        <path id="Path_147" data-name="Path 147" d="M199.828,339.572c32.527-18.816,37.255-25.831,37.255-25.831L199.475,258.35s-1.26,1.178-4.07,3.361c11.395,15.177,25.727,37.1,29.652,44.294-12.41,6.551-75.206,42.969-94.077,59.492l4,6.275A567.851,567.851,0,0,0,199.828,339.572Z" transform="translate(-98.535 -258.35)" fill="#9ec8e8"/>
        <path id="Path_148" data-name="Path 148" d="M119.4,318.623s49.713-7.141,76.957-19.024c31.541-13.76,37.608-18.485,37.608-18.485L218.5,258.35a407.81,407.81,0,0,1-37.75,24.951c-13.322,7.794-63.19,32.515-63.19,32.515Z" transform="translate(-117.563 -258.35)" fill="#fff" opacity="0.5"/>
      </g>
      <g id="Group_52" data-name="Group 52" transform="translate(312.536 206.958)">
        <path id="Path_149" data-name="Path 149" d="M256.579,336.4c.355-5.726,2.554-13.44,6.191-14.625.157-.051.517.346.965.958-.01-.7-.036-1.407-.087-2.109-1.7-1.151-5.99-4.382-6.016-4.2-9.518,17.37-53.283,43.281-83.1,43.631-2.658.029,6.839,7.687,7.494,7.494a32.878,32.878,0,0,1,20.448,1.224c8.8-4.974,18.2-8.918,26.9-14.175C236.472,350.318,247.608,342.836,256.579,336.4Z" transform="translate(-174.059 -316.422)" fill="#2b1722"/>
        <path id="Path_150" data-name="Path 150" d="M202.392,354.873c9.458-4.667,21.723-12.986,30.481-18.6,1.7-1.086,1.961-3.842,1.76-6.855-9.562,8.157-28.327,19.067-44.335,26.436C194.149,357.562,198.335,356.875,202.392,354.873Z" transform="translate(-151.029 -297.989)" fill="#2b1722"/>
        <path id="Path_151" data-name="Path 151" d="M186.866,356.585c1.253.675,3.352,1.758,5.509,2.89,7.9-4.215,16.144-7.849,23.846-12.5,7.782-4.7,15.614-9.649,23.036-15.01-.293-2.3-.7-4.527-.839-6.091C225.62,335.84,202.838,349.4,186.866,356.585Z" transform="translate(-155.897 -303.019)" fill="#2b1722"/>
        <path id="Path_152" data-name="Path 152" d="M189.144,355.9c.687.36,1.378.725,2.046,1.079.247.133.5.22.747.331,16.008-7.368,34.774-18.279,44.335-26.436-.053-.82-.14-1.654-.247-2.486-7.421,5.361-15.254,10.309-23.036,15.01C205.288,348.053,197.044,351.688,189.144,355.9Z" transform="translate(-152.667 -299.447)" fill="#442e3a"/>
        <path id="Path_153" data-name="Path 153" d="M239.874,326.9c-.022-.687,0-1.434.044-2.215-8.972,6.435-20.107,13.917-27.2,18.2-8.7,5.257-18.1,9.2-26.9,14.176a23.629,23.629,0,0,1,2.394,1.122l.164.087c15.972-7.182,38.754-20.746,51.551-30.713C239.9,327.325,239.881,327.1,239.874,326.9Z" transform="translate(-157.398 -304.704)" fill="#442e3a"/>
      </g>
      <path id="Path_154" data-name="Path 154" d="M207.188,349.4c-3.668-9.264-15.061-15.353-25.384-17.261-4.491-.829-19.418-3.6-22.9,2.778-.89,1.627,2.1,4.67,5.688,6.752,7.378,4.283,14.04,11.3,16.55,17.643a25.448,25.448,0,0,0,4.534,7.934c2.655,2.933,12.821-2.1,15.909-4.283C206.772,359.3,210.082,356.705,207.188,349.4Z" transform="translate(116.761 -89.042)" fill="#bbd9f9"/>
      <path id="Path_155" data-name="Path 155" d="M206.37,304.908c-1.782,11.837,6.633,30.22,10.921,38.882,2.343,4.732,8.326,4.759,12.168-.643C227.919,335.919,221.414,319.2,206.37,304.908Z" transform="translate(183.953 -125.792)" fill="#bbd9f9"/>
      <path id="Path_156" data-name="Path 156" d="M275.091,324.65a1.434,1.434,0,0,0-1.284-.737c-6.1.636-8.778,5.487-10.06,11.051-1.62,7.022-2.967,11.385-9.89,15.464-5.1,3.006-10.331,5.813-15.493,8.71q-13,7.3-26,14.6c-4.469,1.192-8.747,1.313-12.268-.675-5.018-2.832-8.522-5.286-13.513-.781-6.372,5.75-11.332,14.584-11.661,22.944-.123,3.115-.012,3.828,4.3,1.712,10.328-5.061,21.95-13.232,29.785-11.9,4.026-2.251,36.084-19.957,46.05-26.46.849-2.544,2.986-4.5,5.484-6.164,5.564-3.712,10.952-6.536,13.893-11.793A48.751,48.751,0,0,0,275.091,324.65Z" transform="translate(139.664 -98.846)" fill="#2b1722"/>
      <path id="Path_157" data-name="Path 157" d="M184.785,345.259c-2.539,1.468-4.6,5.4-4.6,8.785s2.058,4.943,4.6,3.477,4.6-5.4,4.6-8.785S187.324,343.794,184.785,345.259Z" transform="translate(147.168 -69.348)" fill="#7a6c6f"/>
      <path id="Path_158" data-name="Path 158" d="M216.257,327.217c-2.3,1.33-4.171,4.9-4.171,7.97s1.867,4.486,4.171,3.156,4.171-4.9,4.171-7.973S218.562,325.886,216.257,327.217Z" transform="translate(192.405 -94.864)" fill="#7a6c6f"/>
      <path id="Path_159" data-name="Path 159" d="M179.664,349.265a7.186,7.186,0,0,0-3,5.731c0,2.208,1.342,3.223,3,2.266a7.184,7.184,0,0,0,3-5.729C182.662,349.325,181.318,348.309,179.664,349.265Z" transform="translate(142.171 -63.395)" fill="#7a6c6f"/>
      <g id="Group_53" data-name="Group 53" transform="translate(35.828 68.607)">
        <path id="Path_160" data-name="Path 160" d="M101.573,270.258c-10.732-5.685-21.59-7.073-30.762,2.529-2.592,2.713-4.585,5.98-6.839,9.015L213.4,368.139V355.183c-5.794-9.443-12.831-20.7-19.113-30.148-21.481-13.293-40.461-22.322-60.232-34.655C123.322,283.684,112.754,276.18,101.573,270.258Z" transform="translate(-53.477 -249.887)" fill="#9ec8e8"/>
        <path id="Path_161" data-name="Path 161" d="M185.77,314.946c-9.416-7.38-43.59-28.2-71.177-43.547-15.6-8.679-23.07-13.131-30.186-12.023-6.227.97-8.884,4.128-13.3,9.721-6.019,7.632-11.477,15.962-11.477,15.962l10.495,6.065c2.254-3.035,4.246-6.3,6.839-9.015,9.172-9.6,20.03-8.215,30.762-2.529,11.182,5.922,21.749,13.426,32.484,20.122,19.771,12.333,38.752,21.362,60.232,34.655C194.1,324.817,188.524,317.108,185.77,314.946Z" transform="translate(-59.632 -259.209)" fill="#74a9d1"/>
      </g>
      <path id="Path_162" data-name="Path 162" d="M198.6,288.3c-8.108,5.552-24.409,16.57-40.229,26.482a1.691,1.691,0,0,0,.846,3.12c15.769.991,30.455-4.08,42.838-13.2C213.331,296.4,198.629,288.321,198.6,288.3Z" transform="translate(115.093 -149.34)" fill="#fff" opacity="0.5"/>
      <path id="Path_163" data-name="Path 163" d="M137.952,306.208c-.191-.092-.452.189-.244.314,11.385,6.892,25.036,18.458,36.89,28.61,10.613,9.085,20.443,19.911,32.7,26.883C205.5,356.9,165.05,319.174,137.952,306.208Z" transform="translate(86.814 -123.975)" fill="#ff4848"/>
      <path id="Path_164" data-name="Path 164" d="M242.742,343.215c-16.666-23.34-41.528-42.879-65.221-58.731-.189-.126-.416.164-.244.314,11.063,9.583,22.912,18.221,33.908,27.894C222.216,322.4,238.4,341.331,242.742,343.215Z" transform="translate(142.953 -154.801)" fill="#ff4848"/>
      <path id="Path_165" data-name="Path 165" d="M191.276,343.359c-1.1-3-6.065-8.7-11.815-8.166-6.2.576-14.081,1.381-9.743,8.137,2.711,4.222,3.7,8.261,4.882,10.761,1.374,2.89,3.569,5.588,7.385,3.453C188.4,353.955,194.124,351.165,191.276,343.359Z" transform="translate(130.55 -82.892)" fill="#fff"/>
      <path id="Path_166" data-name="Path 166" d="M210.15,312.845c-2,1.739,1.178,10.657,3.473,16.328s3.664,5.748,6.7,4.142,1.429-8.333-1.606-13.332S212.827,310.526,210.15,312.845Z" transform="translate(188.76 -115.43)" fill="#fff"/>
      <path id="Path_167" data-name="Path 167" d="M106.387,275s-2.841,33.973-2.841,50.753c0,16.117-10.473.607-10.623-2.5C92.252,309.174,98.8,271.4,98.8,271.4Z" transform="translate(23.34 -173.307)" fill="#ff4848"/>
      <path id="Path_168" data-name="Path 168" d="M78.8,300.6s12.374.6,48.8,19.725C167.229,341.13,175.238,346.259,203,371.8c-9.257,5-12.1,16.074-12.1,16.074S114.7,343.161,87.167,327.745C86.19,317.451,84.57,310.757,78.8,300.6Z" transform="translate(3.377 -131.907)" fill="#ff6161"/>
      <path id="Path_169" data-name="Path 169" d="M46.825,269.254a61.064,61.064,0,0,0,6.534,4.437c1.357.788,1.818,3.69,1.5,7.172-.491,5.373-1.357,12.125-1.589,14.741-.355,4.014-5.047,1.221-7.76-.179C44.083,291.143,45.019,274.526,46.825,269.254Z" transform="translate(-44.816 -176.356)" fill="#bbd9f9"/>
      <path id="Path_170" data-name="Path 170" d="M81.554,258.419s-13.167,30.152-15.6,40.974c-1.141,5.088,4.931,10.089,5.48,7.854,2.641-10.783,8.176-33.132,13.6-47.5C85.372,258.876,81.554,258.419,81.554,258.419Z" transform="translate(-15.037 -191.723)" fill="#ff4848"/>
      <path id="Path_171" data-name="Path 171" d="M100.293,272.588S95.553,307.071,94.412,325c-2.118,33.243,2.152,67.482,2.152,67.482s-.2-19.933.239-29.488c.774-17.031.866-38.989,2.319-50.976,1.763-14.533,3.078-38.273,3.078-38.273Z" transform="translate(24.684 -171.628)" fill="#f73131"/>
      <path id="Path_172" data-name="Path 172" d="M104.063,296.437c-3.318-1.284-5.477-1.676-6.079.283-.851,2.769,3.083,4.793,4.488,5.528,3.219,1.686,7.267,4.682,8.851,1.378C112.928,300.275,106.747,297.475,104.063,296.437Z" transform="translate(30.417 -139.33)" fill="#2b1722"/>
      <path id="Path_173" data-name="Path 173" d="M73.833,278.845c-3.318-1.284-5.477-1.676-6.079.283-.851,2.769,3.083,4.79,4.488,5.528,3.219,1.685,7.267,4.682,8.851,1.376C82.7,282.681,76.517,279.883,73.833,278.845Z" transform="translate(-12.455 -164.279)" fill="#2b1722"/>
      <path id="Path_174" data-name="Path 174" d="M137.1,240.333c-.092-1.12-2.619-3.265-3-3.378-5.472-2.164-10.867-.039-15.563,2.829-4.14,2.529-9.731,5.91-13.138,10.135-1.555,1.93-2.464,3.867,1.717,3.862,3.968-.007,24.385-6.807,28.073-9.095C137.369,243.334,137.747,241.7,137.1,240.333Z" transform="translate(39.253 -223.422)" fill="#fff" opacity="0.5"/>
      <path id="Path_175" data-name="Path 175" d="M131.61,278.639c-19.038-8.8-34.682-20.01-55.016-25.34-.624-.164-1.079.786-.455,1.081,17.916,8.437,84.671,43.893,100.1,55.34C169.979,299.97,147.287,285.889,131.61,278.639Z" transform="translate(-0.817 -199.011)" fill="#ff4848"/>
      <path id="Path_176" data-name="Path 176" d="M168.687,257.468c-19.038-8.8-34.682-20.013-55.016-25.34-.624-.164-1.081.786-.455,1.079,17.916,8.437,84.671,43.893,100.1,55.343C207.057,278.8,184.365,264.716,168.687,257.468Z" transform="translate(51.765 -229.035)" fill="#ff4848"/>
      <path id="Path_177" data-name="Path 177" d="M207.826,330.462c1.5,2.607-.075,6.336-3.528,8.328s-7.47,1.5-8.974-1.108.073-6.336,3.526-8.328S206.322,327.858,207.826,330.462Z" transform="translate(167.824 -92.855)" fill="#fff"/>
      <g id="Group_55" data-name="Group 55" transform="translate(167.582 173.101)">
        <path id="Path_178" data-name="Path 178" d="M124.09,312.862s10.1,2.026,12.239.745,1.988-5.351-.779-6.137-8.742,0-8.742,0Z" transform="translate(-99.972 -295.755)" fill="#2b1722"/>
        <g id="Group_54" data-name="Group 54">
          <path id="Path_179" data-name="Path 179" d="M124.637,316.965c5.533-5.313,15.363-11.1,19.138-12.563a11.526,11.526,0,0,0-.878-.9c-2.72-2.38-4.856-.256-7.53,1.018-6.321,3.016-15.455,8.193-19.278,15.757-3.156,6.249-2.626,10.512,2.326,11.133C117.286,327.271,119.641,321.762,124.637,316.965Z" transform="translate(-114.116 -302.421)" fill="#ff6161"/>
          <path id="Path_180" data-name="Path 180" d="M134.036,325.209c9.4-4.447,11.617-10.768,10.534-15.953a12.8,12.8,0,0,0-3.153-6.016c-3.775,1.461-13.6,7.25-19.138,12.563-5,4.8-7.351,10.306-6.222,14.441C119.636,330.691,125.507,329.248,134.036,325.209Z" transform="translate(-111.759 -301.259)" fill="#ff8080"/>
        </g>
      </g>
      <path id="Path_181" data-name="Path 181" d="M230.61,345.969l-40.728,23.515v-13.57L230.61,332.4Z" transform="translate(160.916 -86.804)" fill="#fff"/>
    </g>
    <g id="Group_65" data-name="Group 65" transform="translate(30.559)">
      <g id="Group_59" data-name="Group 59" transform="translate(3.933 219.755)">
        <g id="Group_57" data-name="Group 57" transform="translate(0 157.74)">
          <path id="Path_182" data-name="Path 182" d="M61.043,320.809l1.4-.858,2.762,1.987-4.158,1.693Z" transform="translate(-56.296 -287.786)" fill="#ff4848"/>
          <path id="Path_183" data-name="Path 183" d="M64.708,322.208l.041,3.441,4.631-2.362s-2.445-.728-4.225-1.335A3.207,3.207,0,0,1,64.708,322.208Z" transform="translate(-51.097 -284.947)" fill="#ff4848"/>
          <path id="Path_184" data-name="Path 184" d="M59.749,306.649V342.2l1.508,2.648,5.777-3.294V340.8l-.578-.346-3.58,2.039V327.436l5.777,3.335v16.57l1.509,2.648,7.9-4.582-2.105-.531-4.181,2.474V313.6Z" transform="translate(-58.13 -306.649)" fill="#f73131"/>
          <path id="Path_185" data-name="Path 185" d="M59.08,307v35.551l3.128,1.806v-16.57l5.777,3.335v16.57l3.128,1.806V313.944Z" transform="translate(-59.08 -306.155)" fill="#ff4848"/>
          <path id="Path_186" data-name="Path 186" d="M60.7,306.649l-1.619.842,12.033,6.947,1.619-.842Z" transform="translate(-59.08 -306.649)" fill="#f66"/>
        </g>
        <g id="Group_58" data-name="Group 58" transform="translate(4.666)">
          <path id="Path_187" data-name="Path 187" d="M61.009,406.882l1.637-164.923c.012-.74,2.718-.711,2.706.036L63.715,406.918A1.356,1.356,0,1,1,61.009,406.882Z" transform="translate(-61.009 -241.419)" fill="#ffdc48"/>
        </g>
      </g>
      <g id="Group_62" data-name="Group 62" transform="translate(188.042 326.765)">
        <g id="Group_60" data-name="Group 60" transform="translate(0 157.74)">
          <path id="Path_188" data-name="Path 188" d="M137.178,365.06l1.4-.858,2.762,1.987-4.158,1.693Z" transform="translate(-132.43 -332.038)" fill="#ff4848"/>
          <path id="Path_189" data-name="Path 189" d="M140.843,366.46l.041,3.441,4.631-2.363s-2.445-.728-4.225-1.335A3.2,3.2,0,0,1,140.843,366.46Z" transform="translate(-127.232 -329.199)" fill="#ff4848"/>
          <path id="Path_190" data-name="Path 190" d="M135.884,350.9v35.551l1.509,2.648,5.777-3.293v-.754l-.579-.346-3.579,2.039V371.688l5.777,3.335v16.57l1.509,2.647,7.9-4.581-2.105-.531-4.18,2.474V357.849Z" transform="translate(-134.265 -350.901)" fill="#f73131"/>
          <path id="Path_191" data-name="Path 191" d="M135.214,351.25V386.8l3.128,1.806v-16.57l5.777,3.335v16.57l3.128,1.805V358.2Z" transform="translate(-135.214 -350.407)" fill="#ff4848"/>
          <path id="Path_192" data-name="Path 192" d="M136.834,350.9l-1.619.842,12.033,6.947,1.619-.842Z" transform="translate(-135.214 -350.901)" fill="#f66"/>
        </g>
        <g id="Group_61" data-name="Group 61" transform="translate(4.666)">
          <path id="Path_193" data-name="Path 193" d="M137.144,451.131l1.637-164.921c.01-.74,2.716-.711,2.706.036L139.85,451.17A1.356,1.356,0,1,1,137.144,451.131Z" transform="translate(-137.144 -285.671)" fill="#ffdc48"/>
        </g>
      </g>
      <g id="Group_63" data-name="Group 63" transform="translate(0 155.875)">
        <path id="Path_194" data-name="Path 194" d="M355.881,324.573l-42.359,24.517L143.1,250.7l42.36-24.517-14.826-8.559L57.453,283.124l14.826,8.559,42.875-24.815,170.424,98.395L242.7,390.079l14.825,8.56,113.178-65.505Z" transform="translate(-57.453 -211.29)" fill="#f73131"/>
        <path id="Path_195" data-name="Path 195" d="M355.881,321.956l-42.359,24.517L143.1,248.079l42.359-24.517L170.631,215,57.453,280.507l14.826,8.56,42.875-24.815,170.424,98.394L242.7,387.462l14.825,8.559,113.178-65.505Z" transform="translate(-57.453 -215.002)" fill="#ff4848"/>
        <path id="Path_196" data-name="Path 196" d="M57.453,242.09v6.329l14.826,8.56V250.65Z" transform="translate(-57.453 -176.585)" fill="#f73131"/>
        <path id="Path_197" data-name="Path 197" d="M135.229,218.542v6.329L98.344,246.219l-5.474-3.161Z" transform="translate(-7.226 -209.982)" fill="#e52525"/>
        <path id="Path_198" data-name="Path 198" d="M134.06,286.319v6.329l14.826,8.56v-6.329Z" transform="translate(51.19 -113.86)" fill="#f73131"/>
        <path id="Path_199" data-name="Path 199" d="M106.458,235.368V241.7L63.584,266.513v-6.329Z" transform="translate(-48.758 -186.119)" fill="#e52525"/>
        <path id="Path_200" data-name="Path 200" d="M253.368,262.771V269.1L140.191,334.605v-6.329Z" transform="translate(59.885 -147.257)" fill="#e52525"/>
      </g>
      <g id="Group_64" data-name="Group 64" transform="translate(51.369 181.059)">
        <path id="Path_201" data-name="Path 201" d="M278.341,347.241,78.7,231.976v-3.627L278.341,343.614Z" transform="translate(-78.696 -221.258)" fill="#33222c"/>
        <path id="Path_202" data-name="Path 202" d="M278.341,347.772,78.7,232.507l12.281-7.091L290.815,340.793Z" transform="translate(-78.696 -225.416)" fill="#442e3a"/>
        <path id="Path_203" data-name="Path 203" d="M173.73,273.129l-12.474,6.979v3.627l12.474-6.979Z" transform="translate(38.39 -157.752)" fill="#2b1722"/>
      </g>
      <path id="Path_204" data-name="Path 204" d="M116.577,150.543V388.505c0,2.246,3.427,4.067,7.649,4.067s7.649-1.821,7.649-4.067V150.543Z" transform="translate(26.396 -150.543)" fill="#bad8f8"/>
    </g>
  </g>
  <g id="Group_90" data-name="Group 90" transform="translate(151.811)">
    <g id="Group_70" data-name="Group 70" transform="translate(248.516 102.308)">
      <g id="Group_67" data-name="Group 67" transform="translate(0 142.729)">
        <path id="Path_205" data-name="Path 205" d="M244.415,189.372a30,30,0,0,0-28.769,0h-5.281v7.719c0,6.292,8.8,11.395,19.665,11.395s19.667-5.1,19.667-11.395v-7.719Z" transform="translate(-210.364 -177.98)" fill="#33212a"/>
        <path id="Path_206" data-name="Path 206" d="M249.7,193.9c0,6.292-8.8,11.394-19.667,11.394s-19.665-5.1-19.665-11.394,8.8-11.392,19.665-11.392S249.7,187.607,249.7,193.9Z" transform="translate(-210.364 -182.507)" fill="#442e3a"/>
      </g>
      <g id="Group_68" data-name="Group 68" transform="translate(7.022 140.403)">
        <path id="Path_207" data-name="Path 207" d="M235.16,185.958a19.3,19.3,0,0,0-18.5,0h-3.4v4.965c0,4.046,5.661,7.325,12.642,7.325s12.645-3.279,12.645-7.325v-4.965Z" transform="translate(-213.268 -178.633)" fill="#ffc033"/>
        <path id="Path_208" data-name="Path 208" d="M238.555,188.87c0,4.046-5.661,7.327-12.645,7.327s-12.642-3.282-12.642-7.327,5.661-7.325,12.642-7.325S238.555,184.824,238.555,188.87Z" transform="translate(-213.268 -181.545)" fill="#ffdc48"/>
      </g>
      <g id="Group_69" data-name="Group 69" transform="translate(11.682)">
        <path id="Path_209" data-name="Path 209" d="M215.2,123.484V270.636c0,2.554,3.574,4.626,7.982,4.626s7.985-2.072,7.985-4.626V123.484Z" transform="translate(-215.195 -123.484)" fill="#bad8f8"/>
      </g>
    </g>
    <g id="Group_78" data-name="Group 78" transform="translate(6.324)">
      <g id="Group_71" data-name="Group 71" transform="translate(31.572 4.698)">
        <path id="Path_210" data-name="Path 210" d="M127.365,235.845c-2.525-1.857-4.1-5.547-4.1-10.613,0-10.035,6.159-21.8,13.685-26.148L334.382,84.727c2.986-1.724,5.746-2,8-1.117l5.758,3.286L132.189,238.643C129.5,237.1,127.491,235.937,127.365,235.845Z" transform="translate(-123.266 -83.119)" fill="#ff4848"/>
        <path id="Path_211" data-name="Path 211" d="M138.813,236.632l197.7-114.269c7.525-4.343,13.685-16.11,13.685-26.146s-6.159-14.691-13.685-10.345l-197.7,114.267c-7.525,4.346-13.685,16.112-13.685,26.148S131.287,240.978,138.813,236.632Z" transform="translate(-120.625 -81.525)" fill="#f73131"/>
      </g>
      <path id="Path_212" data-name="Path 212" d="M222.09,208.994l-14.18-7.571v-91.49c0-10.4,6.382-22.591,14.18-27.093,4.082-2.355,7.745-2.106,10.338.106l.031-.022,13.39,7.871-9.578,16.671Z" transform="translate(28.348 -81.177)" fill="#2b1722"/>
      <path id="Path_213" data-name="Path 213" d="M213.774,204.046v-90.6c0-10.4,6.382-22.591,14.18-27.093s14.18.322,14.18,10.72v90.385Z" transform="translate(36.664 -76.229)" fill="#33222c"/>
      <g id="Group_72" data-name="Group 72" transform="translate(0 24.876)">
        <path id="Path_214" data-name="Path 214" d="M214.087,92.161c3.207,1.852,5.809,6.822,5.809,11.1s-2.6,6.244-5.809,4.391-5.808-6.819-5.808-11.1S210.879,90.309,214.087,92.161Z" transform="translate(28.871 -91.463)" fill="#ffdc48"/>
        <path id="Path_215" data-name="Path 215" d="M110.652,229.272l8.214,15.513L356.613,107.772l-7.621-16.308Z" transform="translate(-109.584 -91.464)" fill="#ffdc48"/>
        <path id="Path_216" data-name="Path 216" d="M116.018,148.63c3.207,1.852,5.809,6.822,5.809,11.1s-2.6,6.244-5.809,4.391-5.809-6.822-5.809-11.1S112.81,146.78,116.018,148.63Z" transform="translate(-110.21 -11.377)" fill="#ffc033"/>
      </g>
      <path id="Path_217" data-name="Path 217" d="M193.62,110.245s24.409,32.058,41.257,53.993c.781,1.018,3.255.218,3.255-4.2,0-5.013-1.393-8.234-2.9-10.2-15.663-20.4-34.433-45.109-34.433-45.109Z" transform="translate(8.082 -47.77)" fill="#bad8f8"/>
      <g id="Group_74" data-name="Group 74" transform="translate(50.659 16.874)">
        <g id="Group_73" data-name="Group 73" transform="translate(9.034 53.617)">
          <path id="Path_218" data-name="Path 218" d="M159.021,214.14c6.785,0,13.259-5.985,20.1-12.309,4.493-4.15,9.138-8.447,14.217-11.453,5.289-3.129,16.816-7.987,30.169-13.61,20.214-8.512,43.124-18.165,55.12-26.189,19.807-13.24,25.171-18.905,28.3-40.057l-1.342-.2c-3.071,20.753-7.99,25.942-27.712,39.129-11.885,7.951-35.736,18-54.9,26.068-13.4,5.644-24.965,10.514-30.329,13.692-5.206,3.081-9.9,7.424-14.449,11.624-6.843,6.331-13.281,12.3-19.771,11.929-10.57-.624-22.264-19.37-22.38-19.561l-1.153.713c.493.8,12.192,19.534,23.449,20.2C158.572,214.135,158.8,214.14,159.021,214.14Z" transform="translate(-134.895 -110.327)" fill="#33222c"/>
        </g>
        <path id="Path_219" data-name="Path 219" d="M135.258,240.881c-2.525-1.86-4.1-5.547-4.1-10.616,0-10.036,6.159-21.8,13.685-26.145L342.275,89.761c2.986-1.724,5.743-2,8-1.117l5.758,3.289L140.08,243.677C137.393,242.134,135.381,240.973,135.258,240.881Z" transform="translate(-131.159 -88.155)" fill="#ff4848"/>
        <path id="Path_220" data-name="Path 220" d="M146.706,241.669,344.41,127.4c7.525-4.346,13.685-16.11,13.685-26.146s-6.159-14.693-13.685-10.345l-197.7,114.267c-7.525,4.346-13.685,16.11-13.685,26.146S139.18,246.012,146.706,241.669Z" transform="translate(-128.518 -86.56)" fill="#f73131"/>
      </g>
      <g id="Group_75" data-name="Group 75" transform="translate(261.148 27.552)">
        <path id="Path_221" data-name="Path 221" d="M225.395,93.433c-3.973,2.292-7.192,8.444-7.192,13.74s3.219,7.731,7.192,5.439,7.192-8.447,7.192-13.743S229.365,91.141,225.395,93.433Z" transform="translate(-218.203 -92.57)" fill="#33222c"/>
        <path id="Path_222" data-name="Path 222" d="M224.433,95.243c-2.266,1.311-4.1,4.819-4.1,7.842s1.838,4.411,4.1,3.1,4.1-4.819,4.1-7.842S226.7,93.934,224.433,95.243Z" transform="translate(-215.188 -89.478)" fill="#442e3a"/>
      </g>
      <g id="Group_77" data-name="Group 77" transform="translate(113.569 48.798)">
        <path id="Path_223" data-name="Path 223" d="M157.174,193.033l116.056-67V101.356L157.174,168.361Z" transform="translate(-157.174 -101.356)" fill="#2b1722"/>
        <g id="Group_76" data-name="Group 76" transform="translate(2.947 4.648)">
          <path id="Path_224" data-name="Path 224" d="M269.039,103.278h0c3.468,2,6.28,7.373,6.28,12,0,2.653-.936,4.454-2.384,5.146-.239.114-110.521,63.877-110.521,63.877L158.394,167.2Z" transform="translate(-158.392 -103.278)" fill="#bad8f8"/>
          <path id="Path_225" data-name="Path 225" d="M158.393,129.713h0c3.468,2,6.278,7.373,6.278,11.994s-2.81,6.749-6.278,4.747h0Z" transform="translate(-158.393 -65.788)" fill="#9ec8e8"/>
        </g>
      </g>
    </g>
    <g id="Group_83" data-name="Group 83" transform="translate(245.211 112.304)">
      <g id="Group_79" data-name="Group 79" transform="translate(5.411 13.452)">
        <path id="Path_226" data-name="Path 226" d="M236.778,218.814l-.068-1.724c.324-.227,7.489-5.463,4.075-17.259-2.96-10.217-8.788-16.27-14.966-22.68-1.248-1.3-2.52-2.614-3.789-3.988-7.5-8.118-11.847-20.975-10.575-31.27a46.753,46.753,0,0,1,2.063-8.713l1.221.653a44.754,44.754,0,0,0-1.942,8.224c-1.209,9.772,3.093,22.465,10.227,30.184,1.262,1.369,2.527,2.679,3.775,3.971,6.292,6.534,12.238,12.7,15.288,23.244C245.774,212.208,236.868,218.754,236.778,218.814Z" transform="translate(-211.235 -133.181)" fill="#33222c"/>
      </g>
      <g id="Group_80" data-name="Group 80" transform="translate(30.954)">
        <path id="Path_227" data-name="Path 227" d="M221.8,184.315V181.9c.094-.118,7.823-10.988,4.928-21.984-2.512-9.542-3.813-27.812-4.377-31.715l1.088-.583c.481,3.833,1.63,21.921,4.566,31.852C231.439,171.09,222.195,183.807,221.8,184.315Z" transform="translate(-221.798 -127.618)" fill="#33222c"/>
      </g>
      <g id="Group_81" data-name="Group 81" transform="translate(6.96 69.327)">
        <path id="Path_228" data-name="Path 228" d="M242.01,223.16l-1.2-.568c.571-1.468.665-2.341.327-3.011-.745-1.494-3.92-2.6-10.309-4.384-11.1-3.093-17.426-10.285-18.8-21.374-1.386-11.167,7.533-36.541,7.881-37.535v4.167c-.085.242-7.881,22.351-6.539,33.2,1.306,10.495,7.3,17.3,17.82,20.235,7.061,1.968,10.173,3.11,11.162,5.085C243,220.275,242.544,221.793,242.01,223.16Z" transform="translate(-211.876 -156.287)" fill="#33222c"/>
      </g>
      <g id="Group_82" data-name="Group 82" transform="translate(0 107.982)">
        <path id="Path_229" data-name="Path 229" d="M213.192,205.024c-3.864-4.082-6.4-11.31-1.463-19.21a53.369,53.369,0,0,1,12.255-13.542v1.787a47.889,47.889,0,0,0-11.1,12.475c-5.7,9.112-.636,15.51,1.071,17.312Z" transform="translate(-208.997 -172.272)" fill="#33222c"/>
      </g>
    </g>
    <g id="Group_84" data-name="Group 84" transform="translate(0 127.817)">
      <path id="Path_230" data-name="Path 230" d="M107.595,157.221v20.165c0,7.929,4.822,11.576,10.768,8.142l20.876-12.052,8.519-13.288V134.033Z" transform="translate(-107.595 -134.033)" fill="#2b1722"/>
      <path id="Path_231" data-name="Path 231" d="M112.048,172.83l12.846,7.15-3.667-28.822-13.633-7.535Z" transform="translate(-107.595 -120.434)" fill="#2b1722"/>
      <path id="Path_232" data-name="Path 232" d="M161.391,141.568l-13.633-7.535-40.164,23.188,13.633,7.535Z" transform="translate(-107.595 -134.033)" fill="#442e3a"/>
      <path id="Path_233" data-name="Path 233" d="M113.232,160.337V180.5c0,7.929,4.822,11.576,10.771,8.142l20.874-12.052L153.4,163.3V137.149Z" transform="translate(-99.6 -129.614)" fill="#33222c"/>
    </g>
    <g id="Group_89" data-name="Group 89" transform="translate(11.871 161.442)">
      <g id="Group_85" data-name="Group 85" transform="translate(0)">
        <path id="Path_234" data-name="Path 234" d="M137.651,250.046v-2.278c5.1-7.049,4.079-24.8-3.231-33.627a75.2,75.2,0,0,0-7.477-7.581c-5.153-4.725-10.021-9.187-13.317-18.642-4.858-13.926,7.593-38.923,8.128-39.98l1.2.607c-.126.254-12.725,25.543-8.053,38.931,3.185,9.129,7.927,13.481,12.952,18.086a76.936,76.936,0,0,1,7.61,7.719C143.109,222.52,145.249,242.4,137.651,250.046Z" transform="translate(-112.504 -147.938)" fill="#33222c"/>
      </g>
      <g id="Group_86" data-name="Group 86" transform="translate(1.363 12.635)">
        <path id="Path_235" data-name="Path 235" d="M121.554,271.974a28.675,28.675,0,0,1-5.26-5.588c-9.844-14.814,5.257-33.282,12.957-42.693l.326-.4c6.28-7.663,12.2-14.906,11.982-33.751a124.761,124.761,0,0,0-6.183-35.92l1.267-.455a126.01,126.01,0,0,1,6.268,36.36c.227,19.338-5.85,26.76-12.282,34.621l-.331.406c-9.01,11.017-25.27,30.909-8.744,45.7Z" transform="translate(-113.067 -153.163)" fill="#33222c"/>
      </g>
      <g id="Group_87" data-name="Group 87" transform="translate(5.374 137.341)">
        <path id="Path_236" data-name="Path 236" d="M114.743,304.234c-.024-1.066-.563-26.3,6.976-39.284l.259-.443c8.4-14.437,11.225-19.3,15.077-30.464,3.78-10.954-2.486-25.393-2.556-25.555v-3.755c.3.672,7.789,18.3,3.835,29.751-3.9,11.288-6.737,16.183-15.189,30.7l-.254.445c-7.356,12.647-6.8,38.311-6.8,38.57Z" transform="translate(-114.726 -204.733)" fill="#33222c"/>
      </g>
      <g id="Group_88" data-name="Group 88" transform="translate(1.162 119.918)">
        <path id="Path_237" data-name="Path 237" d="M135.451,326.145c0-4.829,1.485-9.257,3.214-14.388,2.152-6.386,4.592-13.624,4.551-23.435-.07-17.293-3.134-23.575-10.11-33.787a71.446,71.446,0,0,0-8.546-9.745c-5.368-5.426-10.442-10.551-11.419-17.759-1.492-11.073,8.147-28.8,8.531-29.5v2.895c-.089.169-8.623,15.8-7.189,26.428.914,6.756,5.833,11.726,11.039,16.988a72.381,72.381,0,0,1,8.7,9.934c6.976,10.217,10.275,16.954,10.343,34.544.044,10.036-2.435,17.387-4.619,23.875-1.69,5.011-3.148,9.342-3.144,13.953Z" transform="translate(-112.984 -197.528)" fill="#33222c"/>
      </g>
    </g>
  </g>
</svg>
