<svg xmlns="http://www.w3.org/2000/svg" width="13.719" height="18.052" viewBox="0 0 13.719 18.052">
  <g id="Icon_ionic-ios-document" data-name="Icon ionic-ios-document" transform="translate(-7.313 -3.938)">
    <path id="Path_239" data-name="Path 239" d="M21.459,8.408h4.107a.223.223,0,0,0,.226-.226h0a1.336,1.336,0,0,0-.483-1.033l-3.443-2.87a1.449,1.449,0,0,0-.93-.334h0a.333.333,0,0,0-.334.334V7.55A.857.857,0,0,0,21.459,8.408Z" transform="translate(-4.76 -0.003)" fill="#fff"/>
    <path id="Path_240" data-name="Path 240" d="M14.668,7.548V3.938H8.757A1.448,1.448,0,0,0,7.313,5.382V20.545a1.448,1.448,0,0,0,1.444,1.444H19.588a1.448,1.448,0,0,0,1.444-1.444V9.579H16.7A2.034,2.034,0,0,1,14.668,7.548Z" fill="#fff"/>
  </g>
</svg>
