<svg xmlns="http://www.w3.org/2000/svg" width="10.5" height="10.5" viewBox="0 0 10.5 10.5">
  <path id="Icon_awesome-expand" data-name="Icon awesome-expand" d="M0,5.719V2.813A.561.561,0,0,1,.563,2.25H3.469a.282.282,0,0,1,.281.281v.938a.282.282,0,0,1-.281.281H1.5V5.719A.282.282,0,0,1,1.219,6H.281A.282.282,0,0,1,0,5.719ZM6.75,2.531v.938a.282.282,0,0,0,.281.281H9V5.719A.282.282,0,0,0,9.281,6h.938a.282.282,0,0,0,.281-.281V2.813a.561.561,0,0,0-.562-.562H7.031A.282.282,0,0,0,6.75,2.531ZM10.219,9H9.281A.282.282,0,0,0,9,9.281V11.25H7.031a.282.282,0,0,0-.281.281v.938a.282.282,0,0,0,.281.281H9.938a.561.561,0,0,0,.563-.562V9.281A.282.282,0,0,0,10.219,9ZM3.75,12.469v-.937a.282.282,0,0,0-.281-.281H1.5V9.281A.282.282,0,0,0,1.219,9H.281A.282.282,0,0,0,0,9.281v2.906a.561.561,0,0,0,.563.563H3.469A.282.282,0,0,0,3.75,12.469Z" transform="translate(0 -2.25)" fill="#fff"/>
</svg>
