<svg xmlns="http://www.w3.org/2000/svg" width="16.009" height="18.296" viewBox="0 0 16.009 18.296">
  <path id="Icon_awesome-database" data-name="Icon awesome-database" d="M16.009,2.614V4.247c0,1.44-3.585,2.614-8,2.614S0,5.687,0,4.247V2.614C0,1.174,3.585,0,8,0S16.009,1.174,16.009,2.614Zm0,3.675V9.965c0,1.44-3.585,2.614-8,2.614S0,11.4,0,9.965V6.289C1.72,7.473,4.867,8.025,8,8.025S14.289,7.473,16.009,6.289Zm0,5.717v3.675c0,1.44-3.585,2.614-8,2.614s-8-1.174-8-2.614V12.007c1.72,1.184,4.867,1.736,8,1.736S14.289,13.191,16.009,12.007Z" fill="#fff"/>
</svg>
