<svg xmlns="http://www.w3.org/2000/svg" width="18.196" height="18.201" viewBox="0 0 18.196 18.201">
  <path id="Icon_ionic-ios-settings" data-name="Icon ionic-ios-settings" d="M21.194,13.6a2.341,2.341,0,0,1,1.5-2.184,9.281,9.281,0,0,0-1.123-2.706,2.373,2.373,0,0,1-.952.2,2.336,2.336,0,0,1-2.137-3.289,9.253,9.253,0,0,0-2.7-1.123,2.339,2.339,0,0,1-4.369,0A9.281,9.281,0,0,0,8.708,5.623,2.336,2.336,0,0,1,6.571,8.912a2.3,2.3,0,0,1-.952-.2A9.486,9.486,0,0,0,4.5,11.418a2.341,2.341,0,0,1,0,4.369,9.281,9.281,0,0,0,1.123,2.706,2.337,2.337,0,0,1,3.085,3.085A9.335,9.335,0,0,0,11.418,22.7a2.335,2.335,0,0,1,4.359,0,9.281,9.281,0,0,0,2.706-1.123,2.34,2.34,0,0,1,3.085-3.085,9.335,9.335,0,0,0,1.123-2.706A2.353,2.353,0,0,1,21.194,13.6Zm-7.553,3.786a3.791,3.791,0,1,1,3.791-3.791A3.79,3.79,0,0,1,13.641,17.384Z" transform="translate(-4.5 -4.5)" fill="#992621"/>
</svg>
